<?xml version="1.0" encoding="UTF-8"?>
<svg version="1.1" xmlns="http://www.w3.org/2000/svg" width="697" height="461">
<path d="M0 0 C230.01 0 460.02 0 697 0 C697 152.13 697 304.26 697 461 C466.99 461 236.98 461 0 461 C0 308.87 0 156.74 0 0 Z " fill="#FDFDFD" transform="translate(0,0)"/>
<path d="M0 0 C2.86132432 2.38002131 5.29512208 4.66586374 7 8 C7 9.32 7 10.64 7 12 C8.7325 11.8453125 8.7325 11.8453125 10.5 11.6875 C15.67619587 11.69667765 19.10844112 13.70514681 23 17 C29.93822157 25.58148457 29.90614089 35.49782711 29 46 C27.04592461 59.51568813 21.8222809 73.40510864 14.296875 84.75390625 C11.32913221 89.89382223 10.72681444 94.71606495 10.5859375 100.5859375 C10.55688828 101.63861313 10.55688828 101.63861313 10.5272522 102.71255493 C10.46792431 104.93324999 10.42126083 107.15399823 10.375 109.375 C10.33677698 110.88934434 10.29772278 112.40366794 10.2578125 113.91796875 C10.16226266 117.61178831 10.07806063 121.3057647 10 125 C11.57938354 125.15299561 11.57938354 125.15299561 13.19067383 125.30908203 C21.22513981 126.12053849 28.65039049 127.5575829 36.35253906 129.97143555 C41.91778131 131.7126263 47.51761478 133.14162909 53.1875 134.5 C64.9725216 137.3874597 76.2911763 140.38782889 86 148 C86.66257812 148.48855469 87.32515625 148.97710937 88.0078125 149.48046875 C101.56026857 160.24271328 108.51752361 178.01232934 116.04077148 193.08087158 C117.02837042 195.05676069 118.02076255 197.03019272 119.01367188 199.00341797 C120.68513533 202.33052795 122.34077573 205.66509546 123.98477173 209.00585938 C124.61703499 210.28776255 125.25289153 211.56790004 125.89242554 212.84619141 C126.78255042 214.62989296 127.65535449 216.42220651 128.52734375 218.21484375 C129.02999756 219.23698975 129.53265137 220.25913574 130.05053711 221.31225586 C131.0905301 224.25627305 131.1535505 225.16801072 130 228 C128.36601257 229.09275818 128.36601257 229.09275818 126.22143555 229.93530273 C125.01833992 230.42117104 125.01833992 230.42117104 123.79093933 230.91685486 C122.47710014 231.42014061 122.47710014 231.42014061 121.13671875 231.93359375 C120.23435989 232.29340836 119.33200104 232.65322296 118.40229797 233.02394104 C115.50290302 234.17640858 112.59563542 235.30729337 109.6875 236.4375 C107.76961282 237.19452239 105.85228764 237.95297026 103.93554688 238.71289062 C101.14822501 239.81753174 98.36009064 240.91957246 95.56759644 242.01107788 C89.69769854 244.30632446 83.90163068 246.71307455 78.15551758 249.30493164 C76 250 76 250 73 249 C72.96241577 250.32837891 72.96241577 250.32837891 72.92407227 251.68359375 C71.99264318 284.15899891 71.99264318 284.15899891 71 297 C67.7 297 64.4 297 61 297 C61.01160156 298.14855469 61.02320313 299.29710937 61.03515625 300.48046875 C61.04455151 302.04947751 61.05364981 303.61848807 61.0625 305.1875 C61.07087891 305.93708984 61.07925781 306.68667969 61.08789062 307.45898438 C61.11695127 314.40447801 60.53862345 320.99789514 60 328 C9.84 328 -40.32 328 -92 328 C-93.15033784 310.74493243 -93.15033784 310.74493243 -93.0625 302.5625 C-93.05798828 301.72396484 -93.05347656 300.88542969 -93.04882812 300.02148438 C-93.03735844 298.0142897 -93.01944478 296.00713326 -93 294 C-95.64 293.67 -98.28 293.34 -101 293 C-101.43261669 288.46557876 -101.85963912 283.93067608 -102.28173828 279.39526367 C-102.42575163 277.85606061 -102.57122824 276.31699367 -102.71826172 274.77807617 C-103.47548085 266.84272877 -104.21794597 258.98227104 -104 251 C-104.99 250.8865625 -105.98 250.773125 -107 250.65625 C-111.14867004 250.05884151 -115.03413193 248.82444945 -119 247.5 C-128.17448042 244.5147208 -137.41933115 241.80101313 -146.6875 239.125 C-147.75013062 238.81792114 -147.75013062 238.81792114 -148.83422852 238.50463867 C-152.88862096 237.33341154 -156.94390886 236.16533316 -161 235 C-158.61324784 227.05894729 -155.25460665 219.62111453 -151.80444336 212.10083008 C-150.82686763 209.96883437 -149.85721103 207.8333791 -148.88867188 205.69726562 C-145.61652754 198.50982831 -142.24882359 191.37710135 -138.7265625 184.30859375 C-138.24283928 183.33598854 -138.24283928 183.33598854 -137.74934387 182.34373474 C-128.70474719 164.36205932 -118.11804119 152.95765653 -99.25 145.875 C-96.74928758 144.91716438 -94.24928923 143.95762109 -91.75 142.99609375 C-91.11282043 142.75208328 -90.47564087 142.50807281 -89.81915283 142.25666809 C-85.33360842 140.53333375 -80.87880958 138.74429707 -76.4375 136.91015625 C-75.23061523 136.41209473 -74.02373047 135.9140332 -72.78027344 135.40087891 C-70.47987157 134.44730983 -68.18096237 133.49012931 -65.88378906 132.52880859 C-57.57056794 129.09453195 -51.14306339 127 -42 127 C-42 121.39 -42 115.78 -42 110 C-43.98 110.0928125 -43.98 110.0928125 -46 110.1875 C-52.36003686 110.16749988 -56.96168554 108.68382499 -61.875 104.625 C-65.08052094 100.66523884 -66.23696104 97.18124266 -66.31884766 92.11791992 C-66.33871735 91.17732224 -66.35858704 90.23672455 -66.37905884 89.2676239 C-66.39061005 88.2653627 -66.40216125 87.2631015 -66.4140625 86.23046875 C-66.43342865 85.19432938 -66.4527948 84.15819 -66.4727478 83.09065247 C-66.53240357 79.78968471 -66.57887331 76.48868181 -66.625 73.1875 C-66.66319263 70.94594855 -66.70224511 68.70441158 -66.7421875 66.46289062 C-66.83809358 60.97538914 -66.92318199 55.48780009 -67 50 C-67.66 50 -68.32 50 -69 50 C-73.50641779 40.32327252 -75.1418591 30.57612329 -71.77734375 20.24609375 C-65.75215085 7.04194761 -55.98126889 -0.0898288 -43 -6 C-28.82231536 -10.2352282 -12.30788724 -7.93141763 0 0 Z " fill="#1A729F" transform="translate(375,114)"/>
<path d="M0 0 C0.33 0 0.66 0 1 0 C1 5.61 1 11.22 1 17 C-0.918125 17.268125 -2.83625 17.53625 -4.8125 17.8125 C-16.20966362 19.85563414 -26.7013755 25.0008854 -37.30078125 29.47412109 C-41.0681434 31.04406406 -44.87178904 32.5093267 -48.6875 33.95703125 C-49.63336723 34.31811478 -49.63336723 34.31811478 -50.5983429 34.68649292 C-53.63139676 35.8439767 -56.66772646 36.9905514 -59.71166992 38.11914062 C-87.28457286 48.67545026 -96.9441892 77.50749014 -108.12875366 102.52825928 C-111.45685403 110.00230997 -114.73477979 117.49830405 -118 125 C-116.11474609 125.32677734 -116.11474609 125.32677734 -114.19140625 125.66015625 C-106.50565055 127.19893143 -99.02084764 129.48429146 -91.50463867 131.68579102 C-88.94125577 132.43640023 -86.37608534 133.18062378 -83.81054688 133.92382812 C-82.15353736 134.40587727 -80.4966327 134.88828706 -78.83984375 135.37109375 C-78.08646225 135.58994736 -77.33308075 135.80880096 -76.55686951 136.0342865 C-71.32871845 137.56822905 -66.15827538 139.24582463 -61 141 C-60.56655919 145.37360221 -60.13959358 149.74777722 -59.71826172 154.12255859 C-59.57447254 155.60645009 -59.4290061 157.09018017 -59.28173828 158.57373047 C-58.47281061 166.73454501 -57.80561365 174.78717681 -58 183 C-55.36 183.33 -52.72 183.66 -50 184 C-49.82796563 186.85392733 -49.66236102 189.70801775 -49.5 192.5625 C-49.45230469 193.34302734 -49.40460938 194.12355469 -49.35546875 194.92773438 C-48.92454299 202.65361761 -49 210.21726115 -49 218 C1.16 218 51.32 218 103 218 C103 213.71 103 209.42 103 205 C103.1376976 201.72230532 103.2917975 198.45965551 103.5 195.1875 C103.54769531 194.38763672 103.59539062 193.58777344 103.64453125 192.76367188 C103.7595871 190.84223922 103.87925848 188.92108375 104 187 C107.3 187 110.6 187 114 187 C113.99419922 186.04802734 113.98839844 185.09605469 113.98242188 184.11523438 C113.94007913 173.90020915 114.16144961 163.70877121 114.5 153.5 C114.54840887 151.9830803 114.59658686 150.46615321 114.64453125 148.94921875 C114.76037619 145.29939067 114.87928605 141.64967068 115 138 C115.58137726 138.191315 116.16275452 138.38263 116.76174927 138.57974243 C119.35792576 139.06720472 120.40598871 138.74160516 122.81201172 137.72412109 C123.54733124 137.41985199 124.28265076 137.11558289 125.04025269 136.80209351 C125.82876617 136.46263702 126.61727966 136.12318054 127.4296875 135.7734375 C128.25647003 135.4287442 129.08325256 135.0840509 129.93508911 134.72891235 C132.58631539 133.62153118 135.23081127 132.4990693 137.875 131.375 C141.32853658 129.91922324 144.78472342 128.46985936 148.2421875 127.0234375 C149.07707703 126.67319519 149.91196655 126.32295288 150.77215576 125.96209717 C157.76412046 123.04953832 164.82776929 120.43436485 172 118 C175.04848237 126.06023343 178.06819228 134.1287898 180.97265625 142.2421875 C181.22113815 142.9359549 181.46962006 143.62972229 181.72563171 144.34451294 C182.23980095 145.78087572 182.75383205 147.21728795 183.26773071 148.65374756 C186.9840905 159.04037597 190.73370819 169.40636236 194.734375 179.6875 C195.18719093 180.85419724 195.18719093 180.85419724 195.64915466 182.04446411 C197.09790366 185.77217305 198.55848818 189.49458722 200.03735352 193.21044922 C200.56298471 194.55423609 201.08831061 195.89814244 201.61328125 197.2421875 C202.07516846 198.4060498 202.53705566 199.56991211 203.01293945 200.76904297 C204.02757746 204.09026962 204.32586072 206.55224201 204 210 C202.07914563 213.37805424 200.05697832 216.56849 197 219 C194.59873521 219.3794995 194.59873521 219.3794995 191.68967247 219.38590336 C190.58152982 219.3955767 189.47338717 219.40525004 188.33166444 219.41521651 C187.10922049 219.4105707 185.88677653 219.40592489 184.62728882 219.40113831 C182.68511457 219.41133331 182.68511457 219.41133331 180.70370448 219.42173427 C177.10210023 219.44013412 173.50070439 219.4396822 169.89906383 219.43615115 C166.01748458 219.43554025 162.13597297 219.45208494 158.25442505 219.46632385 C150.6457442 219.49127247 143.03713307 219.49948976 135.42841475 219.50116099 C129.24291199 219.50258553 123.05743227 219.50874505 116.8719368 219.51826286 C99.33790648 219.54469405 81.80393131 219.55851972 64.26988094 219.55627144 C63.32407706 219.55615157 62.37827319 219.5560317 61.40380859 219.5559082 C60.45685039 219.55578556 59.5098922 219.55566292 58.53423829 219.55553656 C43.19534679 219.55431782 27.85667645 219.58300695 12.51784889 219.6253233 C-3.22902812 219.66842261 -18.97579731 219.68913328 -34.72273481 219.68654197 C-43.5645254 219.68554611 -52.40608433 219.69378415 -61.24782181 219.72607613 C-68.77832428 219.75340241 -76.3084902 219.75990854 -83.8390208 219.73954786 C-87.68029771 219.72975596 -91.52092908 219.72956558 -95.36214447 219.7556076 C-99.53037977 219.78357536 -103.69712241 219.76486514 -107.86538696 219.74171448 C-109.07444659 219.75714517 -110.28350621 219.77257586 -111.52920401 219.78847414 C-119.24905774 219.69370005 -124.21454603 218.22337455 -130 213 C-136.69181518 205.81459787 -140.26413775 198.04128856 -140.1015625 188.16796875 C-140.08689941 187.00934326 -140.07223633 185.85071777 -140.05712891 184.65698242 C-140.03827637 183.78017822 -140.01942383 182.90337402 -140 182 C-140.85845268 182.00460896 -141.71690536 182.00921793 -142.60137177 182.01396656 C-163.50050195 182.12444355 -184.39958172 182.20715556 -205.29894257 182.25906086 C-215.40578201 182.28482983 -225.51242639 182.31995543 -235.61914062 182.37719727 C-244.42934695 182.42707218 -253.23941199 182.45930052 -262.04975557 182.47044247 C-266.71376316 182.47695431 -271.3773666 182.49223168 -276.04124451 182.52865028 C-280.43421171 182.56267441 -284.82660959 182.57304008 -289.21969604 182.56553841 C-290.82892453 182.5669101 -292.43817273 182.57680461 -294.04728699 182.59602737 C-310.07544676 182.77805539 -310.07544676 182.77805539 -316 177 C-319.84676831 172.06824576 -321.12061273 168.4790436 -321.15390015 162.30220032 C-321.16680084 160.52114143 -321.16680084 160.52114143 -321.17996216 158.70410156 C-321.18422211 157.39965088 -321.18848206 156.0952002 -321.19287109 154.7512207 C-321.20077409 153.36475927 -321.20904316 151.97829988 -321.21765137 150.59184265 C-321.24385198 146.03650878 -321.25917854 141.48116581 -321.2734375 136.92578125 C-321.27879827 135.35619794 -321.28417578 133.78661468 -321.28956985 132.21703148 C-321.31119704 125.68622922 -321.32993233 119.15542941 -321.34119225 112.62460041 C-321.35742223 103.27332577 -321.39057835 93.92246723 -321.44759309 84.57134944 C-321.4863362 77.99202515 -321.50583017 71.41281194 -321.51111281 64.83337659 C-321.51476076 60.90605037 -321.52672169 56.97916815 -321.55921555 53.05196571 C-321.58937317 49.35410125 -321.59558123 45.65694762 -321.58383179 41.95898628 C-321.58350716 39.96377008 -321.60792234 37.96859724 -321.63320923 35.97354126 C-321.58375366 28.83047493 -321.07424418 23.35409598 -316 18 C-310.91321228 14.10977821 -306.02528177 12.87437386 -299.74451065 12.87695217 C-298.67411081 12.87496112 -297.60371096 12.87297007 -296.50087476 12.87091869 C-295.32578689 12.87383153 -294.15069903 12.87674437 -292.94000244 12.87974548 C-291.69110127 12.87889106 -290.4422001 12.87803663 -289.15545344 12.87715632 C-285.68699926 12.87491775 -282.2185759 12.87892395 -278.75012565 12.88393438 C-275.01055638 12.88824781 -271.2709889 12.88679182 -267.53141785 12.8860321 C-261.05171547 12.88550744 -254.57202315 12.88864827 -248.0923233 12.89426994 C-238.72373431 12.90239267 -229.35515018 12.90500096 -219.98655805 12.90625793 C-204.78709714 12.90844723 -189.58764159 12.91510403 -174.38818359 12.92456055 C-159.62223335 12.93373781 -144.85628455 12.94081711 -130.09033203 12.94506836 C-129.18034927 12.94533108 -128.27036652 12.94559381 -127.33280852 12.94586449 C-122.76774934 12.94716952 -118.20269014 12.94843323 -113.63763094 12.94967639 C-75.7584168 12.96004521 -37.87920891 12.9777345 0 13 C0 8.71 0 4.42 0 0 Z " fill="#FCFCFC" transform="translate(332,224)"/>
<path d="M0 0 C1.11695954 -0.00384115 2.23391907 -0.00768229 3.38472587 -0.01163983 C4.61699808 -0.01077335 5.84927029 -0.00990687 7.11888409 -0.00901413 C9.07648404 -0.01347081 9.07648404 -0.01347081 11.07363147 -0.01801753 C14.70377729 -0.02609645 18.33390334 -0.0278776 21.96405709 -0.028615 C25.87622651 -0.030464 29.78838564 -0.03801054 33.70054913 -0.04475021 C42.25835124 -0.05834021 50.81614867 -0.06435924 59.37395978 -0.06876087 C64.71574106 -0.07152207 70.05752052 -0.07575919 75.39930058 -0.08026505 C90.18421121 -0.09245839 104.96912039 -0.1027577 119.75403595 -0.10614014 C121.17381725 -0.10646949 121.17381725 -0.10646949 122.622281 -0.10680549 C123.5710873 -0.10702377 124.5198936 -0.10724204 125.4974516 -0.10746694 C127.42014651 -0.1079104 129.34284141 -0.10835697 131.26553631 -0.10880661 C132.21926267 -0.10902804 133.17298903 -0.10924947 134.15561619 -0.10947761 C149.6128586 -0.11342646 165.07005389 -0.13088286 180.5272781 -0.15416613 C196.39051801 -0.17786847 212.25373427 -0.19034147 228.11699218 -0.19150805 C237.02624685 -0.19242543 245.93544014 -0.19819334 254.84467793 -0.21632767 C262.43044863 -0.23171355 270.01613897 -0.23685807 277.60192231 -0.22858956 C281.47303141 -0.22467773 285.34397859 -0.22563854 289.21506786 -0.23964691 C293.41025627 -0.25468943 297.6050784 -0.24653522 301.80028057 -0.23606491 C303.02586062 -0.24412132 304.25144066 -0.25217772 305.5141595 -0.26047826 C312.29676357 -0.22074054 317.34756706 0.02279393 322.51333904 4.88533401 C322.99158123 5.48216995 323.46982342 6.07900589 323.96255779 6.69392776 C324.45369061 7.29334183 324.94482342 7.89275589 325.45083904 8.51033401 C327.84505994 11.74682154 327.7717854 13.9718098 327.76358318 17.95808792 C327.76350765 19.17920273 327.76343212 20.40031754 327.7633543 21.65843582 C327.75824731 22.99578771 327.75303131 24.33313919 327.74771404 25.67049026 C327.74584919 27.03526635 327.74442561 28.40004311 327.74342632 29.7648201 C327.73960642 33.3585787 327.72978063 36.95229694 327.71872234 40.54603958 C327.7084969 44.21251759 327.70392627 47.87900211 327.69888592 51.54549026 C327.68815789 58.74082117 327.67108778 65.93611882 327.65005779 73.13142776 C327.03164013 72.71778976 326.41322247 72.30415176 325.77606487 71.87797928 C324.96507336 71.33626083 324.15408184 70.79454239 323.31851482 70.23640823 C322.51447216 69.69902023 321.7104295 69.16163223 320.8820219 68.60795975 C312.47462933 63.04613912 304.97744826 61.66253386 295.02505779 61.56892776 C294.05938885 61.55426468 293.0937199 61.53960159 292.09878826 61.52449417 C281.30746908 61.67726229 273.19428853 65.83904102 264.65005779 72.13142776 C264.03259686 72.53619339 263.41513592 72.94095901 262.77896404 73.35799026 C256.26925394 78.08441676 251.69630955 86.19779019 250.3009367 94.11140823 C249.55801143 101.71843905 250.47067784 108.24277119 253.65005779 115.13142776 C253.65005779 116.12142776 253.65005779 117.11142776 253.65005779 118.13142776 C255.13505779 117.63642776 255.13505779 117.63642776 256.65005779 117.13142776 C256.98005779 133.96142776 257.31005779 150.79142776 257.65005779 168.13142776 C224.2815698 168.24167458 190.91325868 168.33398772 157.54464334 168.38675441 C153.60435799 168.39300788 149.66407303 168.39947949 145.72378826 168.40608597 C144.93935506 168.40739752 144.15492186 168.40870907 143.34671795 168.41006037 C130.6485711 168.43181147 117.95053753 168.47123135 105.25245786 168.51719175 C92.22112329 168.56396465 79.18984802 168.59172491 66.15843296 168.60187024 C58.11857857 168.6087277 50.07904439 168.63037883 42.03928858 168.6710101 C35.87229787 168.70058744 29.70555083 168.70369979 23.53849888 168.69696617 C21.01012418 168.69834217 18.48173741 168.70829391 15.95343494 168.72745514 C12.50070791 168.75233965 9.04934985 168.74634809 5.596591 168.73270035 C4.09656599 168.75454666 4.09656599 168.75454666 2.56623745 168.77683431 C-3.92276432 168.70752602 -8.37161523 167.40979851 -13.34994221 163.13142776 C-17.20200976 158.19287962 -18.47161381 154.60544623 -18.49711323 148.42016983 C-18.50426853 147.22990692 -18.51142384 146.03964401 -18.51879597 144.81331253 C-18.52148487 143.50571976 -18.52417377 142.19812698 -18.52694416 140.85091019 C-18.53321001 139.46120407 -18.53985692 138.07149964 -18.54685688 136.68179703 C-18.56788354 132.11684203 -18.57825728 127.55188674 -18.58822346 122.98689651 C-18.5922714 121.41479156 -18.59638833 119.84268679 -18.60057354 118.2705822 C-18.61962137 110.88518096 -18.63385381 103.4997897 -18.64218551 96.11436862 C-18.6519598 87.5911552 -18.67828587 79.06820136 -18.7186864 70.54507941 C-18.74884884 63.95559315 -18.76365446 57.36618131 -18.76696652 50.77662736 C-18.76931669 46.84161219 -18.77827261 42.90687445 -18.8034277 38.97193336 C-18.82671624 35.26921991 -18.83093882 31.56696641 -18.82066631 27.86419868 C-18.8199353 25.86146863 -18.83902059 23.85876189 -18.85873127 21.85612869 C-18.81321511 13.99860004 -18.25128868 10.14723917 -12.75228596 4.48689651 C-8.36112343 0.98567626 -5.53561643 0.0071305 0 0 Z " fill="#FCFCFC" transform="translate(52.349942207336426,45.86857223510742)"/>
<path d="M0 0 C1.32165786 -0.00761181 1.32165786 -0.00761181 2.67001587 -0.0153774 C3.63886607 -0.01587516 4.60771627 -0.01637292 5.60592556 -0.01688576 C7.14889511 -0.02345914 7.14889511 -0.02345914 8.72303575 -0.03016531 C12.18672199 -0.04357187 15.65038277 -0.04973639 19.11408901 -0.0558567 C21.59088666 -0.06375628 24.06768315 -0.07202514 26.54447842 -0.08063698 C33.99012953 -0.1046104 41.43577646 -0.11978868 48.88145295 -0.13269705 C50.98513729 -0.13640967 53.08882096 -0.14038286 55.19250464 -0.14444971 C68.26072263 -0.16968991 81.32894167 -0.19173948 94.39717865 -0.20417786 C97.42407199 -0.20710748 100.45096529 -0.21006915 103.47785854 -0.21308327 C104.23016447 -0.21382932 104.9824704 -0.21457537 105.75757348 -0.21534403 C117.93686773 -0.22799006 130.11601573 -0.26120294 142.29524166 -0.3028851 C154.80462317 -0.34534547 167.31392991 -0.36887772 179.82338327 -0.37409842 C186.8448292 -0.3775082 193.86604672 -0.38921164 200.88742161 -0.42220116 C207.49563852 -0.45319876 214.10353021 -0.45859549 220.711833 -0.4468174 C223.13454896 -0.44659661 225.55728335 -0.45490619 227.97993565 -0.47247124 C231.29389375 -0.49518645 234.60641226 -0.48685538 237.92037868 -0.47098732 C239.3502314 -0.49181045 239.3502314 -0.49181045 240.80897003 -0.51305425 C248.36924123 -0.42418351 254.9975238 1.68967309 260.62834793 6.92174876 C265.76639011 12.52055981 268.07750153 17.88748533 268.12751675 25.54424095 C268.13598629 26.26057198 268.14445583 26.976903 268.15318203 27.71494102 C268.17646766 30.06935746 268.17757596 32.42311677 268.17634487 34.77763939 C268.18345358 36.42662882 268.19115361 38.07561579 268.19941616 39.72459984 C268.21284308 43.17773373 268.21443875 46.63063909 268.20857143 50.08379173 C268.20268902 54.48637394 268.23321375 58.88784815 268.27368832 63.29021645 C268.29967746 66.69627748 268.30243243 70.10207608 268.29879665 73.50822258 C268.30047868 75.12998034 268.31003193 76.75175144 268.32794094 78.37341118 C268.42664714 88.41909948 268.12946463 97.28887834 260.92280483 105.06212425 C254.57880642 111.10740792 247.77586797 111.430513 239.39707851 111.3977108 C238.36037419 111.40153635 237.32366987 111.40536189 236.25555027 111.40930337 C232.78264503 111.41961993 229.30990553 111.41564371 225.8369894 111.41167259 C223.34665175 111.41601981 220.85631543 111.42120299 218.3659811 111.42716026 C212.30411588 111.43916879 206.24231576 111.44170174 200.18044461 111.43936 C195.25216135 111.43757589 190.32389152 111.43932848 185.39560986 111.44358444 C184.34288131 111.44447723 184.34288131 111.44447723 183.26888552 111.44538805 C181.84306257 111.44659982 180.41723962 111.44781395 178.99141668 111.44903042 C165.62382892 111.4599036 152.2562664 111.45774458 138.88867722 111.45164558 C126.66622984 111.44647717 114.44386217 111.45773022 102.22143055 111.47674379 C89.66449663 111.49612762 77.10760041 111.50437721 64.55065143 111.50062054 C57.50367699 111.49870925 50.45677038 111.50118897 43.40980816 111.51533508 C36.78271823 111.52850393 30.15576146 111.52598143 23.52866268 111.51292419 C21.09705584 111.51055603 18.66543781 111.51330164 16.2338438 111.52154732 C12.91306975 111.53199583 9.59283324 111.52392875 6.27207851 111.51123619 C5.3111731 111.51861048 4.35026768 111.52598476 3.36024392 111.53358251 C-2.53082509 111.48625393 -6.92838865 110.62943988 -12.29240513 108.13701439 C-13.84709263 106.21123314 -13.84709263 106.21123314 -14.29240513 104.13701439 C-14.05021763 102.15654564 -14.05021763 102.15654564 -13.41740513 99.94951439 C-11.27592163 90.45372571 -10.29650391 78.66394831 -15.07756138 69.86748314 C-16.88455283 67.29353711 -18.92313532 65.19453817 -21.29240513 63.13701439 C-23.29240513 61.13701439 -23.29240513 61.13701439 -23.5218668 59.31789207 C-23.50665485 58.2149128 -23.50665485 58.2149128 -23.4911356 57.08965111 C-23.48387455 56.25473137 -23.4766135 55.41981163 -23.46913242 54.55959129 C-23.44948429 53.65443779 -23.42983616 52.74928429 -23.40959263 51.81670189 C-23.39405338 50.88407524 -23.37851414 49.95144859 -23.36250401 48.99056053 C-23.32563439 47.01160173 -23.28322844 45.03273963 -23.2357645 43.05400658 C-23.1681501 40.04516579 -23.13167182 37.0370173 -23.09709263 34.02763939 C-23.05734217 32.10311969 -23.01573357 30.1786373 -22.97209263 28.25420189 C-22.96458988 27.36119377 -22.95708714 26.46818565 -22.94935703 25.54811668 C-22.72384388 18.1915635 -20.73625953 12.96674054 -15.91740513 7.38701439 C-10.92406403 3.10700773 -6.6890572 0.02045922 0 0 Z " fill="#FDFEFE" transform="translate(415.292405128479,65.86298561096191)"/>
<path d="M0 0 C1.26321579 -0.01265396 2.52643158 -0.02530792 3.82792664 -0.03834534 C5.2202037 -0.02703007 6.61247667 -0.01520264 8.00474548 -0.00291443 C9.47681541 -0.00805469 10.94887918 -0.01533678 12.42092896 -0.02459717 C16.41274173 -0.04310463 20.40388622 -0.03017791 24.39567113 -0.01050687 C28.57383703 0.00588352 32.75196074 -0.00293366 36.93014526 -0.00802612 C43.94535494 -0.01254616 50.9602979 0.00331827 57.97544861 0.03126526 C66.08662582 0.06332938 74.19732233 0.0632964 82.30853373 0.04605049 C90.11206597 0.03018984 97.91542193 0.03691513 105.71894646 0.0539875 C109.03987252 0.06086111 112.36065741 0.05982247 115.6815815 0.05244255 C119.59122913 0.04478421 123.50032926 0.05689034 127.4098835 0.08429146 C128.8449796 0.09118076 130.28012679 0.09126736 131.71522141 0.08407593 C133.67319007 0.07539448 135.63122319 0.09375933 137.58911133 0.11352539 C138.68508164 0.11633231 139.78105196 0.11913923 140.9102335 0.12203121 C144.40220637 0.74861607 145.58710288 1.85204716 147.73106384 4.62818909 C148.21690369 7.25465393 148.21690369 7.25465393 148.19200134 10.33912659 C148.18950378 11.53827698 148.18700623 12.73742737 148.18443298 13.97291565 C148.15923255 15.31635775 148.13307492 16.65978217 148.10606384 18.00318909 C148.09146141 19.41952173 148.07773777 20.83586366 148.06480408 22.25221252 C147.83220035 41.40854183 147.02415659 60.56508621 146.26622009 79.70631409 C146.22760361 80.71580109 146.18898712 81.72528809 146.14920044 82.7653656 C145.84946173 90.0810159 145.2935902 97.31534651 144.73106384 104.62818909 C94.57106384 104.62818909 44.41106384 104.62818909 -7.26893616 104.62818909 C-8.39051866 87.80445155 -8.39051866 87.80445155 -8.51502991 82.02662659 C-8.5466925 80.73007141 -8.5783551 79.43351624 -8.61097717 78.09767151 C-8.62637543 77.43125641 -8.64177368 76.76484131 -8.65763855 76.07823181 C-9.00986457 61.10036566 -9.70790234 46.1563999 -10.60853577 31.20191956 C-10.85878375 27.01186478 -11.06751812 22.82087805 -11.26893616 18.62818909 C-11.34611877 17.37989319 -11.42330139 16.13159729 -11.50282288 14.84547424 C-11.5481012 13.69740295 -11.59337952 12.54933167 -11.64002991 11.36647034 C-11.71435242 9.8762738 -11.71435242 9.8762738 -11.79017639 8.35597229 C-10.57628566 2.00337221 -5.96434368 0.00318964 0 0 Z " fill="#31446C" transform="translate(290.26893615722656,337.37181091308594)"/>
<path d="M0 0 C3.03674871 3.4847936 4.35702922 7.34976608 5.79296875 11.6640625 C6.33897974 13.25799246 6.88504344 14.85190437 7.43115234 16.44580078 C7.71706238 17.28919006 8.00297241 18.13257935 8.29754639 19.00152588 C12.48344568 31.3410437 16.79109879 43.6231927 21.48046875 55.78125 C21.84853134 56.73615326 22.21659393 57.69105652 22.59580994 58.67489624 C24.38793117 63.31134432 26.19631651 67.94092841 28.02026367 72.56494141 C28.67774157 74.25416563 29.33505791 75.94345275 29.9921875 77.6328125 C30.2977507 78.39364136 30.6033139 79.15447021 30.9181366 79.93835449 C32.52482512 84.09277476 33.50989041 87.4704873 33 92 C31.07914563 95.37805424 29.05697832 98.56849 26 101 C23.59873521 101.3794995 23.59873521 101.3794995 20.68967247 101.38590336 C19.58152982 101.3955767 18.47338717 101.40525004 17.33166444 101.41521651 C16.10922049 101.4105707 14.88677653 101.40592489 13.62728882 101.40113831 C11.68511457 101.41133331 11.68511457 101.41133331 9.70370448 101.42173427 C6.10210023 101.44013412 2.50070439 101.4396822 -1.10093617 101.43615115 C-4.98251542 101.43554025 -8.86402703 101.45208494 -12.74557495 101.46632385 C-20.3542558 101.49127247 -27.96286693 101.49948976 -35.57158525 101.50116099 C-41.75708801 101.50258553 -47.94256773 101.50874505 -54.1280632 101.51826286 C-71.66209352 101.54469405 -89.19606869 101.55851972 -106.73011906 101.55627144 C-107.67592294 101.55615157 -108.62172681 101.5560317 -109.59619141 101.5559082 C-110.54314961 101.55578556 -111.4901078 101.55566292 -112.46576171 101.55553656 C-127.80465321 101.55431782 -143.14332355 101.58300695 -158.48215111 101.6253233 C-174.22902812 101.66842261 -189.97579731 101.68913328 -205.72273481 101.68654197 C-214.5645254 101.68554611 -223.40608433 101.69378415 -232.24782181 101.72607613 C-239.77832428 101.75340241 -247.3084902 101.75990854 -254.8390208 101.73954786 C-258.68029771 101.72975596 -262.52092908 101.72956558 -266.36214447 101.7556076 C-270.53037977 101.78357536 -274.69712241 101.76486514 -278.86538696 101.74171448 C-280.6789764 101.76486051 -280.6789764 101.76486051 -282.52920401 101.78847414 C-290.24905774 101.69370005 -295.21454603 100.22337455 -301 95 C-308.70059327 86.73245034 -311.40003665 78.05703393 -311.62890625 66.8828125 C-309.56320057 54.12932528 -301.52376339 41.84537185 -295.75 30.4375 C-294.36571033 27.69659682 -292.98263318 24.95509789 -291.60186768 22.2124176 C-290.74825465 20.51739829 -289.89250508 18.82345282 -289.03436279 17.13072205 C-288.65016174 16.36885086 -288.26596069 15.60697968 -287.87011719 14.82202148 C-287.53212097 14.15428207 -287.19412476 13.48654266 -286.84588623 12.79856873 C-285.88044693 10.83732766 -285.88044693 10.83732766 -285 8 C-274.77488136 10.41338204 -264.66471936 13.17992264 -254.5625 16.0625 C-253.36657227 16.4028125 -252.17064453 16.743125 -250.93847656 17.09375 C-244.57123821 18.92159726 -238.2655815 20.8489287 -232 23 C-231.56655919 27.37360221 -231.13959358 31.74777722 -230.71826172 36.12255859 C-230.57447254 37.60645009 -230.4290061 39.09018017 -230.28173828 40.57373047 C-229.47281061 48.73454501 -228.80561365 56.78717681 -229 65 C-226.36 65.33 -223.72 65.66 -221 66 C-220.82796563 68.85392733 -220.66236102 71.70801775 -220.5 74.5625 C-220.42845703 75.73329102 -220.42845703 75.73329102 -220.35546875 76.92773438 C-219.92454299 84.65361761 -220 92.21726115 -220 100 C-169.84 100 -119.68 100 -68 100 C-68 95.71 -68 91.42 -68 87 C-67.8623024 83.72230532 -67.7082025 80.45965551 -67.5 77.1875 C-67.45230469 76.38763672 -67.40460938 75.58777344 -67.35546875 74.76367188 C-67.2404129 72.84223922 -67.12074152 70.92108375 -67 69 C-63.7 69 -60.4 69 -57 69 C-57.00580078 68.04802734 -57.01160156 67.09605469 -57.01757812 66.11523438 C-57.05992087 55.90020915 -56.83855039 45.70877121 -56.5 35.5 C-56.45159113 33.9830803 -56.40341314 32.46615321 -56.35546875 30.94921875 C-56.23962381 27.29939067 -56.12071395 23.64967068 -56 20 C-55.12842506 20.2869725 -55.12842506 20.2869725 -54.23924255 20.57974243 C-51.6397885 21.06760394 -50.58334528 20.73903523 -48.17211914 19.72412109 C-47.43357193 19.41985199 -46.69502472 19.11558289 -45.93409729 18.80209351 C-45.14244675 18.46263702 -44.3507962 18.12318054 -43.53515625 17.7734375 C-42.70600204 17.4287442 -41.87684784 17.0840509 -41.02256775 16.72891235 C-38.36464934 15.62150219 -35.71352424 14.49880114 -33.0625 13.375 C-30.44905597 12.27875102 -27.83429119 11.18570247 -25.21932983 10.09307861 C-23.52299637 9.38407316 -21.82720847 8.67376091 -20.13198853 7.96209717 C-13.47071246 5.17229184 -6.76527237 2.5287706 0 0 Z " fill="#F6AE9E" transform="translate(503,342)"/>
<path d="M0 0 C0.85514191 -0.00852997 1.71028381 -0.01705994 2.59133911 -0.02584839 C3.52647339 -0.02494202 4.46160767 -0.02403564 5.42507935 -0.02310181 C6.41235016 -0.02981903 7.39962097 -0.03653625 8.41680908 -0.04345703 C11.68800864 -0.06249076 14.95900361 -0.06636397 18.23025513 -0.06851196 C20.50085536 -0.07493622 22.77145475 -0.0816643 25.04205322 -0.08868408 C29.80516479 -0.10067036 34.56820376 -0.10436352 39.33132935 -0.10317993 C45.43704522 -0.10297669 51.54229593 -0.13027909 57.64790154 -0.16472435 C62.3387669 -0.18695375 67.02951963 -0.19101868 71.72043228 -0.18996048 C73.97151416 -0.1923224 76.22259887 -0.201179 78.473629 -0.21662521 C81.62184026 -0.23620429 84.76903955 -0.23047844 87.91726685 -0.21841431 C88.84835266 -0.22965332 89.77943848 -0.24089233 90.73873901 -0.25247192 C94.89659934 -0.21195038 97.1878634 -0.10986881 100.79327393 2.11029053 C103.68953041 5.22274799 105.04938024 7.17561854 105.06126404 11.39093018 C105.06834885 12.22924377 105.07543365 13.06755737 105.08273315 13.93127441 C105.08025574 14.84770721 105.07777832 15.76414001 105.07522583 16.70834351 C105.08033676 17.67610718 105.08544769 18.64387085 105.0907135 19.64096069 C105.10463882 22.84724067 105.10365036 26.05330637 105.10134888 29.25961304 C105.10523448 31.48537272 105.10956887 33.71113167 105.11433411 35.93688965 C105.12180286 40.60584922 105.12150049 45.27473318 105.11624146 49.94369507 C105.11044914 55.92827112 105.12736908 61.91253746 105.15058613 67.8970623 C105.165316 72.49527803 105.16619612 77.09341907 105.1630764 81.69165421 C105.16359009 83.89806862 105.16883675 86.10448717 105.17888832 88.31087875 C105.19121928 91.39669674 105.18448058 94.48191025 105.17288208 97.56771851 C105.18052582 98.48010284 105.18816956 99.39248718 105.19604492 100.33251953 C105.15638793 105.10399867 105.05148624 108.50380179 101.80056763 112.26742554 C96.76702658 116.70114775 92.60573402 116.84341584 86.21853638 116.78500366 C85.27144806 116.79201294 84.32435974 116.79902222 83.34857178 116.8062439 C80.2281026 116.82380212 77.10854551 116.81220855 73.98806763 116.79867554 C71.81383084 116.80137107 69.63959522 116.805254 67.46536255 116.81027222 C62.91259259 116.81616434 58.36013694 116.80761326 53.80740356 116.78890991 C47.9764555 116.76612085 42.14624393 116.77924542 36.31532288 116.80319977 C31.82683784 116.81766528 27.33852694 116.81304822 22.85003662 116.8026886 C20.7002758 116.80002341 18.55049909 116.80328373 16.40075684 116.81260681 C13.39427919 116.82278451 10.38898831 116.80725356 7.38259888 116.78500366 C6.0545372 116.79714905 6.0545372 116.79714905 4.699646 116.80953979 C-0.7281133 116.73525689 -3.97069504 115.99224797 -8.19943237 112.26742554 C-11.99545108 107.85014049 -11.63126704 103.25111052 -11.60348511 97.7071228 C-11.61377998 96.27207901 -11.61377998 96.27207901 -11.62428284 94.80804443 C-11.64256396 91.649822 -11.63871137 88.49209571 -11.63302612 85.33383179 C-11.6375873 83.13574563 -11.64289268 80.9376609 -11.64891052 78.73957825 C-11.65784423 74.13381149 -11.65541546 69.52821811 -11.64547729 64.92245483 C-11.63398774 59.02312562 -11.65419802 53.12439497 -11.68339443 47.22514439 C-11.70174933 42.68606267 -11.70146534 38.14712458 -11.69575691 33.60801506 C-11.69560361 31.43312681 -11.70165529 29.25822888 -11.71404839 27.08337593 C-11.72894265 24.04091069 -11.71829221 20.99955361 -11.70114136 17.9571228 C-11.71080933 17.06082657 -11.72047729 16.16453033 -11.73043823 15.24107361 C-11.66594558 9.77151515 -10.88904396 6.57863504 -7.19943237 2.26742554 C-4.11909521 0.21386743 -3.47831027 0.01569234 0 0 Z " fill="#1B729F" transform="translate(61.199432373046875,84.73257446289063)"/>
<path d="M0 0 C0.94694229 -0.00686325 1.89388458 -0.0137265 2.86952209 -0.02079773 C5.99528051 -0.03907757 9.12053757 -0.03522645 12.24633789 -0.02954102 C14.42200382 -0.03410226 16.5976683 -0.03940766 18.77333069 -0.04542542 C23.3320196 -0.05435888 27.89053335 -0.05193065 32.44921875 -0.04199219 C38.28801615 -0.0305027 44.12620877 -0.05071291 49.96492672 -0.07990932 C54.45768569 -0.09826495 58.95029957 -0.09798009 63.44308662 -0.0922718 C65.59564627 -0.09211851 67.7482157 -0.09816949 69.90073967 -0.11056328 C72.91207576 -0.12545893 75.92229243 -0.11480615 78.93359375 -0.09765625 C79.82053925 -0.10732422 80.70748474 -0.11699219 81.62130737 -0.12695312 C88.11496986 -0.04960471 91.50213331 1.68759348 96.38223267 6.06362915 C98.24953836 9.86632017 97.94780879 13.67280808 97.91967773 17.85083008 C97.92493469 18.80737991 97.93019165 19.76392975 97.93560791 20.74946594 C97.94881674 23.91313993 97.94006513 27.07631107 97.92993164 30.23999023 C97.93195245 32.43950497 97.93486395 34.63901905 97.93862915 36.83853149 C97.94305399 41.45028049 97.93661742 46.06185523 97.92260742 50.67358398 C97.9055357 56.58070477 97.91534316 62.48741604 97.93332481 68.39452171 C97.94417539 72.93788731 97.94071007 77.48115615 97.93294144 82.02452469 C97.93094192 84.20219598 97.93338997 86.37987609 97.9403801 88.55753708 C97.94801311 91.60475603 97.93636308 94.65131632 97.91967773 97.69848633 C97.92575043 98.59635361 97.93182312 99.49422089 97.93807983 100.41929626 C97.88706972 105.45712198 97.49316582 109.12957562 94.53149414 113.40405273 C90.16732262 117.28767561 85.31087217 116.84164623 79.77172852 116.82397461 C78.79391922 116.83244415 77.81610992 116.8409137 76.80867004 116.84963989 C73.58072866 116.87301416 70.35326371 116.87403204 67.12524414 116.87280273 C64.87992156 116.87990322 62.6346008 116.88760206 60.38928223 116.89587402 C55.68517002 116.90931925 50.98122565 116.91088699 46.27709961 116.9050293 C40.24754142 116.89912844 34.21878709 116.92974134 28.18938446 116.97014618 C23.55340227 116.99598625 18.91761471 116.99890401 14.28157043 116.99525452 C12.05839515 116.99694872 9.83521116 117.00662 7.61210632 117.0243988 C4.5046084 117.04651846 1.39875176 117.03692195 -1.70874023 117.01928711 C-2.62733322 117.03255035 -3.54592621 117.0458136 -4.49235535 117.05947876 C-8.90809522 117.00121333 -10.85503872 116.87437001 -14.45349121 114.11560059 C-17.16949908 110.46074612 -18.71428576 107.83600878 -18.7359314 103.24295044 C-18.74446136 102.42153564 -18.75299133 101.60012085 -18.76177979 100.7538147 C-18.76087341 99.86124969 -18.75996704 98.96868469 -18.7590332 98.04907227 C-18.76575043 97.102276 -18.77246765 96.15547974 -18.77938843 95.17999268 C-18.79839222 92.04889687 -18.80229382 88.91801513 -18.80444336 85.78686523 C-18.81086956 83.60977083 -18.81759779 81.4326773 -18.82461548 79.25558472 C-18.83659416 74.69095864 -18.84029568 70.12640827 -18.83911133 65.56176758 C-18.83890809 59.71512217 -18.86621261 53.86896259 -18.90065575 48.02243233 C-18.92290216 43.52539849 -18.92694956 39.028482 -18.92589188 34.53139877 C-18.92825114 32.37603964 -18.93709294 30.22067742 -18.95255661 28.06537247 C-18.97217066 25.04917711 -18.96639623 22.03403489 -18.9543457 19.01782227 C-18.97120422 17.68504745 -18.97120422 17.68504745 -18.98840332 16.3253479 C-18.93321059 10.88399369 -18.20749968 7.64193905 -14.46850586 3.40405273 C-10.06467227 -0.37034597 -5.52276879 -0.02796671 0 0 Z " fill="#1B729F" transform="translate(45.468505859375,275.595947265625)"/>
<path d="M0 0 C2.86132432 2.38002131 5.29512208 4.66586374 7 8 C7 9.32 7 10.64 7 12 C8.7325 11.8453125 8.7325 11.8453125 10.5 11.6875 C15.67619587 11.69667765 19.10844112 13.70514681 23 17 C29.93822157 25.58148457 29.90614089 35.49782711 29 46 C27.04592461 59.51568813 21.8222809 73.40510864 14.296875 84.75390625 C11.32913221 89.89382223 10.72681444 94.71606495 10.5859375 100.5859375 C10.56657135 101.28772125 10.5472052 101.989505 10.5272522 102.71255493 C10.46792431 104.93324999 10.42126083 107.15399823 10.375 109.375 C10.33677698 110.88934434 10.29772278 112.40366794 10.2578125 113.91796875 C10.16226266 117.61178831 10.07806063 121.3057647 10 125 C13.96 125.33 17.92 125.66 22 126 C21.01 126.33 20.02 126.66 19 127 C19.06767578 128.71896484 19.06767578 128.71896484 19.13671875 130.47265625 C19.13165669 135.07406631 18.16625898 139.06316628 16.8125 143.4375 C16.58691406 144.18104736 16.36132812 144.92459473 16.12890625 145.69067383 C12.51726228 157.15137322 6.89450309 166.30514611 -4 172 C-10.60553564 175.16977046 -18.59870842 175.14929869 -25.6328125 173.3125 C-27.89826332 172.36527318 -29.91402436 171.29362831 -32 170 C-33.02867187 169.38125 -33.02867187 169.38125 -34.078125 168.75 C-45.09470973 161.34954614 -50.92262585 148.4613674 -53.6875 135.875 C-53.89761719 134.77929688 -54.10773438 133.68359375 -54.32421875 132.5546875 C-54.54722656 131.71164063 -54.77023437 130.86859375 -55 130 C-55.66 129.67 -56.32 129.34 -57 129 C-51.4531674 127.44299436 -48.02793513 127 -42 127 C-42 121.39 -42 115.78 -42 110 C-43.98 110.0928125 -43.98 110.0928125 -46 110.1875 C-52.36003686 110.16749988 -56.96168554 108.68382499 -61.875 104.625 C-65.08052094 100.66523884 -66.23696104 97.18124266 -66.31884766 92.11791992 C-66.33871735 91.17732224 -66.35858704 90.23672455 -66.37905884 89.2676239 C-66.39061005 88.2653627 -66.40216125 87.2631015 -66.4140625 86.23046875 C-66.43342865 85.19432938 -66.4527948 84.15819 -66.4727478 83.09065247 C-66.53240357 79.78968471 -66.57887331 76.48868181 -66.625 73.1875 C-66.66319263 70.94594855 -66.70224511 68.70441158 -66.7421875 66.46289062 C-66.83809358 60.97538914 -66.92318199 55.48780009 -67 50 C-67.66 50 -68.32 50 -69 50 C-73.50641779 40.32327252 -75.1418591 30.57612329 -71.77734375 20.24609375 C-65.75215085 7.04194761 -55.98126889 -0.0898288 -43 -6 C-28.82231536 -10.2352282 -12.30788724 -7.93141763 0 0 Z " fill="#F6AD9D" transform="translate(375,114)"/>
<path d="M0 0 C2.86132432 2.38002131 5.29512208 4.66586374 7 8 C7 9.32 7 10.64 7 12 C8.7325 11.8453125 8.7325 11.8453125 10.5 11.6875 C15.67619587 11.69667765 19.10844112 13.70514681 23 17 C29.93822157 25.58148457 29.90614089 35.49782711 29 46 C27.02905479 59.63237106 21.70728764 73.1537574 14.32421875 84.703125 C12.26764943 88.27027178 11.08898095 92.04527969 10 96 C9.01 96 8.02 96 7 96 C3.72386851 86.17160552 5.87358651 76.03850624 9.87109375 66.84765625 C11.46335526 62.83119036 11.69680216 60.2582354 11 56 C9.54002013 53.37283423 9.54002013 53.37283423 7 52 C3.56068222 51.48776118 1.57392707 51.7491217 -1.609375 53.140625 C-4.25009402 54.8321132 -4.25009402 54.8321132 -4.92578125 57.91796875 C-5.05339844 58.99691406 -5.18101562 60.07585937 -5.3125 61.1875 C-5.45300781 62.27417969 -5.59351563 63.36085938 -5.73828125 64.48046875 C-5.82464844 65.31191406 -5.91101563 66.14335937 -6 67 C-6.66 67 -7.32 67 -8 67 C-8.19335938 66.28714844 -8.38671875 65.57429688 -8.5859375 64.83984375 C-8.84632813 63.88207031 -9.10671875 62.92429687 -9.375 61.9375 C-9.64699219 60.92945313 -9.91898437 59.92140625 -10.19921875 58.8828125 C-10.81163842 56.67810169 -11.48609838 54.49053659 -12.1875 52.3125 C-13.15465795 48.36947143 -13.1420445 45.04826838 -13 41 C-13.66 41 -14.32 41 -15 41 C-15.268125 41.9075 -15.53625 42.815 -15.8125 43.75 C-16.89576294 46.71471963 -17.98359457 48.6169754 -20 51 C-21.875 50.75 -21.875 50.75 -24 50 C-25.25 47.9375 -25.25 47.9375 -26 46 C-26.61875 46.825 -27.2375 47.65 -27.875 48.5 C-28.57625 49.325 -29.2775 50.15 -30 51 C-30.66 51 -31.32 51 -32 51 C-32.66 50.01 -33.32 49.02 -34 48 C-37.66374813 48.45036291 -37.66374813 48.45036291 -40.5625 50.5625 C-41.036875 51.036875 -41.51125 51.51125 -42 52 C-43.32 52 -44.64 52 -46 52 C-46.33 50.68 -46.66 49.36 -47 48 C-51.1263531 48.45848368 -53.25990785 48.84889402 -56 52 C-56.66 52 -57.32 52 -58 52 C-58.66 49.03 -59.32 46.06 -60 43 C-60.7425 43.78375 -61.485 44.5675 -62.25 45.375 C-64.59421977 47.61266433 -66.14324985 48.69370826 -69 50 C-73.50641779 40.32327252 -75.1418591 30.57612329 -71.77734375 20.24609375 C-65.75215085 7.04194761 -55.98126889 -0.0898288 -43 -6 C-28.82231536 -10.2352282 -12.30788724 -7.93141763 0 0 Z " fill="#33456D" transform="translate(375,114)"/>
<path d="M0 0 C2.2487253 0.0964083 4.50027227 0.13022222 6.75106144 0.13307858 C7.44446862 0.1353216 8.13787579 0.13756463 8.85229531 0.13987562 C11.1930551 0.14622973 13.53375942 0.14545067 15.87452698 0.14476013 C17.56273496 0.14789265 19.25094217 0.15146717 20.93914837 0.15544754 C25.59175397 0.16516548 30.24434729 0.16869925 34.89696157 0.17129052 C39.90926985 0.17517836 44.92156722 0.1848158 49.93386841 0.19384766 C58.62297405 0.20879892 67.31207882 0.2203376 76.00119209 0.22979546 C88.56647651 0.24365121 101.13174071 0.26483581 113.69701063 0.28822399 C134.0847048 0.32615772 154.47240261 0.36112129 174.86010742 0.39282227 C176.08104774 0.39472276 177.30198805 0.39662325 178.55992656 0.39858133 C195.89645672 0.42542751 213.23298971 0.44929735 230.56952577 0.47196633 C231.79076928 0.47356363 233.01201279 0.47516094 234.27026367 0.47680664 C235.49002589 0.47840011 236.7097881 0.47999357 237.96651281 0.48163532 C258.27747526 0.50836792 278.58841613 0.54275135 298.89935535 0.58346039 C311.43899204 0.60828382 323.97860545 0.62658336 336.51826286 0.636616 C345.10385301 0.64398639 353.68941194 0.65848114 362.27498145 0.67868023 C367.23513977 0.69011263 372.19524762 0.69820315 377.1554203 0.69767189 C381.68960583 0.69724661 386.22367753 0.70587244 390.75783383 0.72192169 C392.40446625 0.72610294 394.0511114 0.72685225 395.69774658 0.72395759 C397.92356242 0.72052304 400.14900103 0.72919002 402.3747797 0.74108028 C403.61483896 0.74281653 404.85489823 0.74455278 406.13253504 0.74634165 C409 1 409 1 411 3 C411.1875 6.0625 411.1875 6.0625 411 9 C409.18244396 10.81755604 406.66733567 10.12597564 404.24760535 10.13486269 C402.99379442 10.13177971 402.99379442 10.13177971 401.71465397 10.12863445 C400.38929284 10.13126401 400.38929284 10.13126401 399.03715673 10.13394669 C396.03745639 10.13864721 393.03780367 10.13613087 390.0381012 10.13371277 C387.88139253 10.13557871 385.7246842 10.13787853 383.56797642 10.14057809 C377.61107006 10.14672937 371.65417766 10.14655861 365.69726884 10.14538372 C359.28477978 10.14518054 352.8722953 10.15069042 346.45980835 10.15544128 C333.88544306 10.16376651 321.31108259 10.16650989 308.73671479 10.16705366 C298.52174593 10.16751253 288.30677859 10.16956731 278.09181023 10.17275429 C275.15554569 10.17365178 272.21928116 10.17454159 269.28301662 10.17542917 C268.18819191 10.17576074 268.18819191 10.17576074 267.07124953 10.17609901 C246.5305985 10.18225641 225.98994799 10.18619925 205.449296 10.18575573 C204.2867668 10.18573236 204.2867668 10.18573236 203.10075217 10.18570852 C199.17228365 10.18562541 195.24381513 10.18552637 191.31534661 10.18542381 C190.5350839 10.18540387 189.75482118 10.18538392 188.95091415 10.18536337 C187.37303188 10.18532294 185.7951496 10.18528114 184.21726733 10.18523798 C159.66005707 10.18462503 135.10286061 10.19213415 110.5456543 10.20581055 C82.98101543 10.22115537 55.41638562 10.22977774 27.85174221 10.22884732 C24.91516332 10.22877269 21.97858443 10.22872399 19.04200554 10.22869301 C18.31889918 10.22868135 17.59579283 10.2286697 16.85077416 10.22865769 C5.19018165 10.22862686 -6.47039893 10.23502558 -18.13098789 10.24362527 C-29.84043557 10.25208267 -41.54986178 10.25293448 -53.25931125 10.24651595 C-59.60879228 10.2432353 -65.95822985 10.24324931 -72.30770683 10.2518692 C-78.1113414 10.25966741 -83.91489757 10.25837204 -89.71853007 10.24958507 C-91.82686671 10.24803521 -93.93520901 10.24992129 -96.04353898 10.25544515 C-98.89206091 10.26241858 -101.74030108 10.25728067 -104.58881283 10.24888897 C-105.83911201 10.25634124 -105.83911201 10.25634124 -107.11466977 10.26394406 C-112.77170384 10.22829616 -112.77170384 10.22829616 -115 8 C-115.375 5.5625 -115.375 5.5625 -115 3 C-112.19250695 0.35976384 -110.2552345 -0.37687672 -106.43907166 -0.40545654 C-105.52917984 -0.41943985 -104.61928802 -0.43342316 -103.68182373 -0.4478302 C-102.69103821 -0.44796616 -101.70025269 -0.44810211 -100.67944336 -0.44824219 C-99.63029251 -0.46004013 -98.58114166 -0.47183807 -97.50019836 -0.48399353 C-94.03004094 -0.51930179 -90.56014916 -0.53336958 -87.08984375 -0.546875 C-84.68135139 -0.56625819 -82.27286812 -0.58680181 -79.86439514 -0.60845947 C-74.81643308 -0.65083365 -69.76853647 -0.68348072 -64.72045898 -0.70849609 C-58.24132155 -0.74076403 -51.76247094 -0.79038989 -45.28349972 -0.84641647 C-40.31054051 -0.88866244 -35.33755377 -0.92514277 -30.36453438 -0.9595108 C-27.9750453 -0.97607327 -25.58556299 -0.99364464 -23.19608879 -1.01222992 C-19.86111762 -1.03662836 -16.52618608 -1.05408834 -13.19116211 -1.06933594 C-12.19835236 -1.07756882 -11.2055426 -1.0858017 -10.18264771 -1.09428406 C-9.27557571 -1.09698807 -8.36850372 -1.09969208 -7.4339447 -1.10247803 C-6.64547622 -1.10687771 -5.85700773 -1.11127739 -5.04464626 -1.11581039 C-3 -1 -3 -1 0 0 Z " fill="#E1E4E5" transform="translate(211,442)"/>
<path d="M0 0 C1.11695954 -0.00384115 2.23391907 -0.00768229 3.38472587 -0.01163983 C4.61699808 -0.01077335 5.84927029 -0.00990687 7.11888409 -0.00901413 C9.07648404 -0.01347081 9.07648404 -0.01347081 11.07363147 -0.01801753 C14.70377729 -0.02609645 18.33390334 -0.0278776 21.96405709 -0.028615 C25.87622651 -0.030464 29.78838564 -0.03801054 33.70054913 -0.04475021 C42.25835124 -0.05834021 50.81614867 -0.06435924 59.37395978 -0.06876087 C64.71574106 -0.07152207 70.05752052 -0.07575919 75.39930058 -0.08026505 C90.18421121 -0.09245839 104.96912039 -0.1027577 119.75403595 -0.10614014 C121.17381725 -0.10646949 121.17381725 -0.10646949 122.622281 -0.10680549 C123.5710873 -0.10702377 124.5198936 -0.10724204 125.4974516 -0.10746694 C127.42014651 -0.1079104 129.34284141 -0.10835697 131.26553631 -0.10880661 C132.21926267 -0.10902804 133.17298903 -0.10924947 134.15561619 -0.10947761 C149.6128586 -0.11342646 165.07005389 -0.13088286 180.5272781 -0.15416613 C196.39051801 -0.17786847 212.25373427 -0.19034147 228.11699218 -0.19150805 C237.02624685 -0.19242543 245.93544014 -0.19819334 254.84467793 -0.21632767 C262.43044863 -0.23171355 270.01613897 -0.23685807 277.60192231 -0.22858956 C281.47303141 -0.22467773 285.34397859 -0.22563854 289.21506786 -0.23964691 C293.41025627 -0.25468943 297.6050784 -0.24653522 301.80028057 -0.23606491 C303.02586062 -0.24412132 304.25144066 -0.25217772 305.5141595 -0.26047826 C312.29676357 -0.22074054 317.34756706 0.02279393 322.51333904 4.88533401 C322.99158123 5.48216995 323.46982342 6.07900589 323.96255779 6.69392776 C324.45369061 7.29334183 324.94482342 7.89275589 325.45083904 8.51033401 C327.84505994 11.74682154 327.7717854 13.9718098 327.76358318 17.95808792 C327.76350765 19.17920273 327.76343212 20.40031754 327.7633543 21.65843582 C327.75824731 22.99578771 327.75303131 24.33313919 327.74771404 25.67049026 C327.74584919 27.03526635 327.74442561 28.40004311 327.74342632 29.7648201 C327.73960642 33.3585787 327.72978063 36.95229694 327.71872234 40.54603958 C327.7084969 44.21251759 327.70392627 47.87900211 327.69888592 51.54549026 C327.68815789 58.74082117 327.67108778 65.93611882 327.65005779 73.13142776 C326.66005779 72.14142776 325.67005779 71.15142776 324.65005779 70.13142776 C324.65005779 54.95142776 324.65005779 39.77142776 324.65005779 24.13142776 C212.45005779 24.13142776 100.25005779 24.13142776 -15.34994221 24.13142776 C-25.04791639 96.62976073 -25.04791639 96.62976073 -10.34994221 162.13142776 C-5.23293657 165.95591945 0.18544008 165.5456775 6.3181181 165.49219131 C7.39313536 165.49475459 8.46815263 165.49731786 9.57574618 165.49995881 C13.17798048 165.50490026 16.77979569 165.48839729 20.38199139 165.47200394 C22.96412426 165.47115775 25.54625786 165.47163265 28.12839031 165.47333145 C33.68756098 165.47490309 39.24662586 165.46550539 44.80576992 165.44861794 C52.84330149 165.4242176 60.88078201 165.41642161 68.9183466 165.41265396 C81.95931707 165.4060911 95.00023119 165.38613441 108.04117107 165.35774612 C120.70783488 165.33020128 133.37448336 165.30896979 146.04117107 165.29622269 C147.21269582 165.29504043 147.21269582 165.29504043 148.40788774 165.29383429 C152.32609051 165.28991913 156.24429338 165.28612801 160.16249633 165.28239858 C192.65839117 165.25130781 225.15421694 165.19847651 257.65005779 165.13142776 C257.65005779 166.12142776 257.65005779 167.11142776 257.65005779 168.13142776 C224.28162094 168.24589514 190.91323297 168.33398776 157.54464334 168.38675441 C153.60435799 168.39300788 149.66407303 168.39947949 145.72378826 168.40608597 C144.93935506 168.40739752 144.15492186 168.40870907 143.34671795 168.41006037 C130.6485711 168.43181147 117.95053753 168.47123135 105.25245786 168.51719175 C92.22112329 168.56396465 79.18984802 168.59172491 66.15843296 168.60187024 C58.11857857 168.6087277 50.07904439 168.63037883 42.03928858 168.6710101 C35.87229787 168.70058744 29.70555083 168.70369979 23.53849888 168.69696617 C21.01012418 168.69834217 18.48173741 168.70829391 15.95343494 168.72745514 C12.50070791 168.75233965 9.04934985 168.74634809 5.596591 168.73270035 C4.09656599 168.75454666 4.09656599 168.75454666 2.56623745 168.77683431 C-3.92276432 168.70752602 -8.37161523 167.40979851 -13.34994221 163.13142776 C-17.20200976 158.19287962 -18.47161381 154.60544623 -18.49711323 148.42016983 C-18.50426853 147.22990692 -18.51142384 146.03964401 -18.51879597 144.81331253 C-18.52148487 143.50571976 -18.52417377 142.19812698 -18.52694416 140.85091019 C-18.53321001 139.46120407 -18.53985692 138.07149964 -18.54685688 136.68179703 C-18.56788354 132.11684203 -18.57825728 127.55188674 -18.58822346 122.98689651 C-18.5922714 121.41479156 -18.59638833 119.84268679 -18.60057354 118.2705822 C-18.61962137 110.88518096 -18.63385381 103.4997897 -18.64218551 96.11436862 C-18.6519598 87.5911552 -18.67828587 79.06820136 -18.7186864 70.54507941 C-18.74884884 63.95559315 -18.76365446 57.36618131 -18.76696652 50.77662736 C-18.76931669 46.84161219 -18.77827261 42.90687445 -18.8034277 38.97193336 C-18.82671624 35.26921991 -18.83093882 31.56696641 -18.82066631 27.86419868 C-18.8199353 25.86146863 -18.83902059 23.85876189 -18.85873127 21.85612869 C-18.81321511 13.99860004 -18.25128868 10.14723917 -12.75228596 4.48689651 C-8.36112343 0.98567626 -5.53561643 0.0071305 0 0 Z M-15.41244221 11.13142776 C-16.41149577 14.32839917 -16.65958812 16.80273419 -16.34994221 20.13142776 C-14.61786543 21.86350454 -12.27937983 21.25689767 -9.91978168 21.25726891 C-8.73405284 21.25987665 -7.54832399 21.2624844 -6.32666397 21.26517117 C-5.00733651 21.26294045 -3.68800905 21.26070973 -2.32870197 21.25841141 C-0.92611907 21.25956227 0.47646353 21.26114955 1.87904549 21.26313865 C5.75139873 21.26733684 9.62372752 21.26523909 13.49608088 21.26215243 C17.66517559 21.25990053 21.83426594 21.26337689 26.00335979 21.26613235 C34.17778761 21.27059131 42.35220627 21.26961303 50.52663445 21.26671971 C57.16705002 21.26446617 63.807463 21.26415295 70.44787884 21.26524353 C71.39107745 21.26539676 72.33427606 21.26555 73.30605644 21.26570787 C75.22182918 21.26602758 77.13760191 21.26635179 79.05337465 21.26668046 C97.03990788 21.26953562 115.02643602 21.26624767 133.01296842 21.2608801 C148.46394086 21.25641203 163.9149058 21.25718795 179.36587811 21.26179886 C197.28573162 21.26714399 215.20558067 21.26926093 233.12543488 21.26618659 C235.03436883 21.26586803 236.94330279 21.26555366 238.85223675 21.26524353 C239.79159854 21.26508925 240.73096033 21.26493498 241.69878763 21.26477603 C248.33528591 21.26391069 254.97178138 21.26537411 261.60827923 21.26772308 C269.69012264 21.27052061 277.77195634 21.26978384 285.85379863 21.26444234 C289.98142803 21.26180467 294.10904119 21.26080135 298.23667049 21.26409149 C302.00908981 21.26705313 305.78147773 21.26546388 309.55389416 21.26011394 C311.57818931 21.25845295 313.60248662 21.26174849 315.62677956 21.26517117 C316.8125084 21.26256342 317.99823725 21.25995568 319.21989727 21.25726891 C320.25181478 21.25710655 321.28373228 21.2569442 322.34692001 21.25677693 C324.61358264 21.39044763 324.61358264 21.39044763 325.65005779 20.13142776 C326.38083775 15.1377647 324.90271031 12.211633 322.42740154 8.06111526 C318.13263821 3.39822936 314.05206043 1.89595267 307.84753895 1.62247658 C305.49726017 1.59791391 303.14668987 1.59536228 300.79632854 1.61003494 C299.49812801 1.60238385 298.19992748 1.59473275 296.86238754 1.58684981 C293.26975573 1.56631059 289.67752356 1.57064772 286.08485913 1.579211 C282.2060662 1.58414936 278.32736902 1.56611241 274.44861126 1.55113602 C266.85382275 1.52564834 259.25917568 1.52205381 251.6643516 1.52673654 C245.49038026 1.53030394 239.31645183 1.52680137 233.14248562 1.51828766 C232.26346768 1.51709728 231.38444974 1.5159069 230.4787949 1.51468045 C228.69301121 1.51225693 226.90722753 1.50982866 225.12144385 1.5073957 C208.3774015 1.48564701 191.63343973 1.48996855 174.88939284 1.50216539 C159.57661517 1.51250326 144.26409198 1.48999391 128.95136465 1.45196895 C113.22243288 1.41321036 97.49362148 1.39670046 81.76464164 1.40421546 C72.93633422 1.40803934 64.10824338 1.40306617 55.27997494 1.37478638 C47.76419634 1.35095428 40.24876763 1.34815341 32.7329842 1.37236671 C28.89978871 1.38414173 25.06723311 1.3863525 21.23408031 1.36236191 C17.07479837 1.33663314 12.91703799 1.35757815 8.75775433 1.38298416 C7.55142318 1.36823559 6.34509203 1.35348702 5.1022054 1.33829153 C-3.75481993 1.45213664 -10.24555901 3.6159613 -15.41244221 11.13142776 Z " fill="#E4E6E7" transform="translate(52.349942207336426,45.86857223510742)"/>
<path d="M0 0 C0.33 0 0.66 0 1 0 C1 5.61 1 11.22 1 17 C-0.57574327 16.99723462 -2.15148653 16.99446924 -3.77497959 16.99162006 C-41.17414035 16.92665621 -78.57329417 16.8771833 -115.97249967 16.84680401 C-120.57500965 16.84305186 -125.1775195 16.8391689 -129.7800293 16.83520508 C-130.69631186 16.83441815 -131.61259442 16.83363122 -132.55664312 16.83282044 C-147.39584415 16.81976408 -162.23501033 16.79610896 -177.07419068 16.76854161 C-192.29887938 16.74049384 -207.52354982 16.72382507 -222.7482633 16.71773452 C-232.14384682 16.71361677 -241.53933187 16.70060795 -250.93488508 16.6762506 C-257.3764731 16.66040117 -263.81801016 16.65559785 -270.25961626 16.65949587 C-273.97691515 16.66141865 -277.69404187 16.65845682 -281.4113102 16.64238358 C-285.44208996 16.62508205 -289.47250274 16.631034 -293.50331116 16.63923645 C-294.67744239 16.63049793 -295.85157363 16.6217594 -297.0612846 16.61275607 C-304.36003512 16.65299876 -309.74181332 17.08478034 -315.375 22.125 C-317.68184536 25.76683655 -317.68184536 25.76683655 -318 34 C-187.32 34.495 -187.32 34.495 -54 35 C-58.5793844 38.4345383 -60.94780953 39.1318345 -66.49023819 39.10743046 C-67.38995165 39.10593811 -68.28966511 39.10444576 -69.21664262 39.10290819 C-70.20107402 39.0961044 -71.18550541 39.08930061 -72.19976807 39.08229065 C-73.24857517 39.07906152 -74.29738227 39.07583239 -75.37797141 39.07250541 C-78.90338475 39.06041131 -82.42872093 39.04104229 -85.95410156 39.02172852 C-88.47682527 39.01158775 -90.99955081 39.00189386 -93.52227783 38.99261475 C-98.95922885 38.97160817 -104.39615191 38.94748356 -109.83307648 38.92053413 C-117.69396382 38.88157513 -125.55486707 38.84822192 -133.41578552 38.81623887 C-146.16946186 38.76419675 -158.92311389 38.70761817 -171.67675781 38.64819336 C-184.0660711 38.59047582 -196.45539093 38.53489068 -208.84472656 38.48217773 C-209.60834654 38.47892802 -210.37196651 38.4756783 -211.15872648 38.4723301 C-214.98956604 38.45604046 -218.82040577 38.43979279 -222.65124559 38.42356598 C-254.43419399 38.28888437 -286.21710505 38.14676783 -318 38 C-318.09351653 54.82896041 -318.16401494 71.65783952 -318.20724869 88.48700047 C-318.22785807 96.30139931 -318.2559474 104.11563654 -318.30175781 111.92993164 C-318.34167557 118.742321 -318.36744463 125.55459329 -318.37635398 132.36709636 C-318.38156044 135.97301825 -318.39376305 139.57860526 -318.42292023 143.18441963 C-318.45523594 147.21367254 -318.45595626 151.24234637 -318.45410156 155.27172852 C-318.46848267 156.46215759 -318.48286377 157.65258667 -318.49768066 158.87908936 C-318.46492267 165.45291746 -318.13542801 169.76402523 -314 175 C-309.95798505 178.03971642 -306.94744918 178.38026772 -301.94487 178.39872742 C-301.24639397 178.40537424 -300.54791794 178.41202107 -299.82827598 178.41886932 C-297.49433612 178.43748047 -295.16090976 178.43489539 -292.8269043 178.43237305 C-291.15130388 178.44139138 -289.47571008 178.45171878 -287.80012512 178.46325684 C-283.2550942 178.49084461 -278.71018841 178.50011377 -274.1650846 178.50611091 C-269.41378298 178.51548993 -264.66257499 178.54169295 -259.91133118 178.56611633 C-250.91586055 178.60979797 -241.92040808 178.63833473 -232.92486364 178.66143972 C-222.68305075 178.68848245 -212.44133198 178.73239454 -202.19958627 178.77772844 C-181.13310813 178.87059857 -160.06660182 178.94226849 -139 179 C-139.33 179.99 -139.66 180.98 -140 182 C-161.76624806 182.11686127 -183.53244431 182.20500195 -205.29894257 182.25906086 C-215.40578201 182.28482983 -225.51242639 182.31995543 -235.61914062 182.37719727 C-244.42934695 182.42707218 -253.23941199 182.45930052 -262.04975557 182.47044247 C-266.71376316 182.47695431 -271.3773666 182.49223168 -276.04124451 182.52865028 C-280.43421171 182.56267441 -284.82660959 182.57304008 -289.21969604 182.56553841 C-290.82892453 182.5669101 -292.43817273 182.57680461 -294.04728699 182.59602737 C-310.07544676 182.77805539 -310.07544676 182.77805539 -316 177 C-319.84676831 172.06824576 -321.12061273 168.4790436 -321.15390015 162.30220032 C-321.16680084 160.52114143 -321.16680084 160.52114143 -321.17996216 158.70410156 C-321.18422211 157.39965088 -321.18848206 156.0952002 -321.19287109 154.7512207 C-321.20077409 153.36475927 -321.20904316 151.97829988 -321.21765137 150.59184265 C-321.24385198 146.03650878 -321.25917854 141.48116581 -321.2734375 136.92578125 C-321.27879827 135.35619794 -321.28417578 133.78661468 -321.28956985 132.21703148 C-321.31119704 125.68622922 -321.32993233 119.15542941 -321.34119225 112.62460041 C-321.35742223 103.27332577 -321.39057835 93.92246723 -321.44759309 84.57134944 C-321.4863362 77.99202515 -321.50583017 71.41281194 -321.51111281 64.83337659 C-321.51476076 60.90605037 -321.52672169 56.97916815 -321.55921555 53.05196571 C-321.58937317 49.35410125 -321.59558123 45.65694762 -321.58383179 41.95898628 C-321.58350716 39.96377008 -321.60792234 37.96859724 -321.63320923 35.97354126 C-321.58375366 28.83047493 -321.07424418 23.35409598 -316 18 C-310.91321228 14.10977821 -306.02528177 12.87437386 -299.74451065 12.87695217 C-298.67411081 12.87496112 -297.60371096 12.87297007 -296.50087476 12.87091869 C-295.32578689 12.87383153 -294.15069903 12.87674437 -292.94000244 12.87974548 C-291.69110127 12.87889106 -290.4422001 12.87803663 -289.15545344 12.87715632 C-285.68699926 12.87491775 -282.2185759 12.87892395 -278.75012565 12.88393438 C-275.01055638 12.88824781 -271.2709889 12.88679182 -267.53141785 12.8860321 C-261.05171547 12.88550744 -254.57202315 12.88864827 -248.0923233 12.89426994 C-238.72373431 12.90239267 -229.35515018 12.90500096 -219.98655805 12.90625793 C-204.78709714 12.90844723 -189.58764159 12.91510403 -174.38818359 12.92456055 C-159.62223335 12.93373781 -144.85628455 12.94081711 -130.09033203 12.94506836 C-129.18034927 12.94533108 -128.27036652 12.94559381 -127.33280852 12.94586449 C-122.76774934 12.94716952 -118.20269014 12.94843323 -113.63763094 12.94967639 C-75.7584168 12.96004521 -37.87920891 12.9777345 0 13 C0 8.71 0 4.42 0 0 Z " fill="#E5E7E8" transform="translate(332,224)"/>
<path d="M0 0 C6.76290913 3.9722245 11.53063976 9.77252493 14.5 17 C14.78492869 19.74593041 14.92153306 22.20497517 14.875 24.9375 C14.88660156 25.61490234 14.89820313 26.29230469 14.91015625 26.99023438 C14.86797514 34.32271815 12.08828558 40.3250152 7.5 46 C0.40552673 51.77200835 -6.68006682 54.56893541 -15.875 54.38671875 C-22.34991566 53.43282492 -28.90901007 49.59098993 -33.5 45 C-39.34856891 36.8940887 -41.51247073 30.04781077 -40.5 20 C-38.41842756 12.02271639 -32.98688032 5.22133764 -26.25 0.5625 C-18.74893026 -3.69947144 -7.80162035 -3.58225403 0 0 Z " fill="#1D73A0" transform="translate(451.5,96)"/>
<path d="M0 0 C0.33 0.66 0.66 1.32 1 2 C1.86193293 1.99772168 1.86193293 1.99772168 2.74127865 1.99539733 C36.80324306 1.90587165 70.86518071 1.83724703 104.92723715 1.79573868 C109.01773512 1.7907359 113.10823285 1.7855586 117.19873047 1.78027344 C118.01306982 1.7792242 118.82740917 1.77817495 119.66642547 1.77709392 C132.84953873 1.75969194 146.03258217 1.7281554 159.21565402 1.69138882 C172.74419675 1.6539736 186.27270293 1.63176292 199.80129528 1.62364602 C208.14819076 1.61815944 216.49488889 1.60083492 224.84172362 1.56833413 C230.5666183 1.54717907 236.29141106 1.54080219 242.01634198 1.54599449 C245.3186717 1.54855478 248.62058439 1.54245774 251.92286873 1.5231781 C255.5067969 1.50327935 259.08988044 1.5080615 262.67382812 1.51898193 C264.23221735 1.50150488 264.23221735 1.50150488 265.8220892 1.48367476 C273.1819382 1.5442969 278.29130163 3.04512328 284.06757164 7.6473217 C289.11864199 13.93686205 288.83583929 20.22585964 288.74462891 28.03173828 C288.74949183 29.44189526 288.75693735 30.85204532 288.76675415 32.26217651 C288.78548088 36.07227382 288.76680304 39.88133538 288.74008989 43.69135141 C288.71736933 47.68704686 288.72568271 51.68269474 288.72958374 55.67843628 C288.73134643 62.38491638 288.70925338 69.0909909 288.67236328 75.79736328 C288.62999775 83.5433334 288.62301725 91.28871045 288.6354872 99.03477299 C288.64688704 106.4992733 288.63557083 113.96356545 288.61314011 121.42803574 C288.60386809 124.59937273 288.60209164 127.77058202 288.6063118 130.94192886 C288.61008689 134.67682975 288.59380051 138.41112932 288.56219101 142.1458931 C288.54969905 144.16519637 288.55670709 146.18459094 288.56433105 148.20391846 C288.4351222 159.22230232 288.4351222 159.22230232 284 164 C278.21027872 169.53799427 273.29613876 171.25329491 265.35610962 171.24050903 C264.39286854 171.24307231 264.39286854 171.24307231 263.41016805 171.24568737 C261.27284112 171.24896401 259.13583284 171.23800913 256.99853516 171.22705078 C255.46072395 171.22648627 253.92291221 171.22680401 252.38510132 171.22793579 C248.22025272 171.22850875 244.05551973 171.21676362 239.89069796 171.20278788 C235.53450897 171.19027108 231.17831723 171.18910927 226.82211304 171.18673706 C218.57745016 171.18052509 210.33284042 171.16411808 202.08820093 171.14403808 C192.70009794 171.1216703 183.31199238 171.11068344 173.92386937 171.10064721 C154.6158828 171.07975161 135.30794568 171.04458112 116 171 C115.67 170.01 115.34 169.02 115 168 C115.81906641 167.99853344 116.63813282 167.99706688 117.48201942 167.99555588 C137.41256754 167.95850275 157.3429454 167.89950786 177.27335548 167.81609726 C186.91156925 167.77628946 196.54970117 167.74390582 206.18798828 167.72900391 C214.58881803 167.71599641 222.98946781 167.68905484 231.3901962 167.64538693 C235.83827462 167.62275178 240.28613088 167.60709055 244.734272 167.60811615 C248.92209519 167.60886155 253.10942692 167.59095921 257.29712296 167.55883217 C258.83295958 167.55032223 260.36885126 167.54859069 261.90470123 167.55419731 C264.00512499 167.56084284 266.10398756 167.54290714 268.20425415 167.51898193 C269.96580054 167.51345118 269.96580054 167.51345118 271.76293373 167.50780869 C276.51739053 166.76196221 279.66534735 164.51874267 282.8125 160.9375 C306.31999421 122.58316734 285 70.98507661 285 26 C187.98 26 90.96 26 -9 26 C-9 25.34 -9 24.68 -9 24 C-8.38040061 23.99826375 -7.76080122 23.9965275 -7.12242609 23.99473864 C29.56118054 23.89181721 66.24476855 23.78372791 102.92833987 23.66888306 C107.3282844 23.65511269 111.72822907 23.64138571 116.12817383 23.62768555 C117.00416165 23.62495724 117.88014946 23.62222894 118.78268237 23.61941796 C132.98572481 23.57528552 147.18877527 23.53467172 161.39183175 23.49534739 C175.95431868 23.45494998 190.51679069 23.41079659 205.07925564 23.36312145 C214.07251359 23.33379843 223.06577036 23.3074413 232.05904771 23.28482103 C238.21746047 23.2690511 244.37585495 23.24964868 250.53424745 23.22733159 C254.09276368 23.21454515 257.65126575 23.20341592 261.20979881 23.19658089 C265.0586691 23.18914659 268.90748713 23.17409156 272.7563324 23.15821838 C273.89346741 23.15724028 275.03060242 23.15626217 276.20219606 23.15525442 C277.73613499 23.14704276 277.73613499 23.14704276 279.30106258 23.1386652 C280.63558968 23.13467814 280.63558968 23.13467814 281.99707693 23.13061053 C283.99865462 23.22121053 283.99865462 23.22121053 285 22 C284.77978979 15.50379893 283.65536784 12.54710347 279 8 C275.9787882 6.14356573 273.72113545 5.74787968 270.1974144 5.73828697 C268.74334234 5.72708873 268.74334234 5.72708873 267.25989509 5.71566427 C266.19764472 5.717599 265.13539436 5.71953374 264.04095459 5.7215271 C262.34523736 5.7128385 262.34523736 5.7128385 260.61526322 5.70397437 C256.8134672 5.68691992 253.01179217 5.68409315 249.20996094 5.68115234 C246.49018547 5.67296254 243.77042426 5.66177751 241.05065918 5.65071106 C235.18811304 5.62842844 229.3255844 5.6134212 223.46300507 5.60334396 C214.98668804 5.58876346 206.51043193 5.56322842 198.03415063 5.53501268 C184.28222331 5.48953325 170.53028723 5.4529232 156.77832031 5.421875 C143.41892966 5.39169417 130.05956044 5.35734605 116.70019531 5.31738281 C115.87683543 5.31492126 115.05347554 5.31245972 114.20516536 5.30992357 C110.07464402 5.29754906 105.94412294 5.28509251 101.81360197 5.27259517 C67.54243058 5.16901014 33.27123481 5.07981257 -1 5 C-0.67 3.35 -0.34 1.7 0 0 Z " fill="#E3E6E7" transform="translate(394,188)"/>
<path d="M0 0 C1.32165786 -0.00761181 1.32165786 -0.00761181 2.67001587 -0.0153774 C3.63886607 -0.01587516 4.60771627 -0.01637292 5.60592556 -0.01688576 C7.14889511 -0.02345914 7.14889511 -0.02345914 8.72303575 -0.03016531 C12.18672199 -0.04357187 15.65038277 -0.04973639 19.11408901 -0.0558567 C21.59088666 -0.06375628 24.06768315 -0.07202514 26.54447842 -0.08063698 C33.99012953 -0.1046104 41.43577646 -0.11978868 48.88145295 -0.13269705 C50.98513729 -0.13640967 53.08882096 -0.14038286 55.19250464 -0.14444971 C68.26072263 -0.16968991 81.32894167 -0.19173948 94.39717865 -0.20417786 C97.42407199 -0.20710748 100.45096529 -0.21006915 103.47785854 -0.21308327 C104.23016447 -0.21382932 104.9824704 -0.21457537 105.75757348 -0.21534403 C117.93686773 -0.22799006 130.11601573 -0.26120294 142.29524166 -0.3028851 C154.80462317 -0.34534547 167.31392991 -0.36887772 179.82338327 -0.37409842 C186.8448292 -0.3775082 193.86604672 -0.38921164 200.88742161 -0.42220116 C207.49563852 -0.45319876 214.10353021 -0.45859549 220.711833 -0.4468174 C223.13454896 -0.44659661 225.55728335 -0.45490619 227.97993565 -0.47247124 C231.29389375 -0.49518645 234.60641226 -0.48685538 237.92037868 -0.47098732 C239.3502314 -0.49181045 239.3502314 -0.49181045 240.80897003 -0.51305425 C248.36924123 -0.42418351 254.9975238 1.68967309 260.62834793 6.92174876 C265.76639011 12.52055981 268.07750153 17.88748533 268.12751675 25.54424095 C268.13598629 26.26057198 268.14445583 26.976903 268.15318203 27.71494102 C268.17646766 30.06935746 268.17757596 32.42311677 268.17634487 34.77763939 C268.18345358 36.42662882 268.19115361 38.07561579 268.19941616 39.72459984 C268.21284308 43.17773373 268.21443875 46.63063909 268.20857143 50.08379173 C268.20268902 54.48637394 268.23321375 58.88784815 268.27368832 63.29021645 C268.29967746 66.69627748 268.30243243 70.10207608 268.29879665 73.50822258 C268.30047868 75.12998034 268.31003193 76.75175144 268.32794094 78.37341118 C268.42664714 88.41909948 268.12946463 97.28887834 260.92280483 105.06212425 C254.57880642 111.10740792 247.77586797 111.430513 239.39707851 111.3977108 C238.36037419 111.40153635 237.32366987 111.40536189 236.25555027 111.40930337 C232.78264503 111.41961993 229.30990553 111.41564371 225.8369894 111.41167259 C223.34665175 111.41601981 220.85631543 111.42120299 218.3659811 111.42716026 C212.30411588 111.43916879 206.24231576 111.44170174 200.18044461 111.43936 C195.25216135 111.43757589 190.32389152 111.43932848 185.39560986 111.44358444 C184.34288131 111.44447723 184.34288131 111.44447723 183.26888552 111.44538805 C181.84306257 111.44659982 180.41723962 111.44781395 178.99141668 111.44903042 C165.62382892 111.4599036 152.2562664 111.45774458 138.88867722 111.45164558 C126.66622984 111.44647717 114.44386217 111.45773022 102.22143055 111.47674379 C89.66449663 111.49612762 77.10760041 111.50437721 64.55065143 111.50062054 C57.50367699 111.49870925 50.45677038 111.50118897 43.40980816 111.51533508 C36.78271823 111.52850393 30.15576146 111.52598143 23.52866268 111.51292419 C21.09705584 111.51055603 18.66543781 111.51330164 16.2338438 111.52154732 C12.91306975 111.53199583 9.59283324 111.52392875 6.27207851 111.51123619 C5.3111731 111.51861048 4.35026768 111.52598476 3.36024392 111.53358251 C-2.52718833 111.48628314 -6.93968354 110.65216853 -12.29240513 108.13701439 C-13.79240513 105.94951439 -13.79240513 105.94951439 -14.29240513 104.13701439 C-9.29240513 106.13701439 -9.29240513 106.13701439 -7.25435638 107.19103336 C-2.87424817 108.58994202 1.3400221 108.41552806 5.91131496 108.3977108 C7.46720651 108.40344912 7.46720651 108.40344912 9.0545302 108.40930337 C12.53520922 108.419634 16.01572329 108.41564105 19.49641323 108.41167259 C21.98984842 108.41601901 24.48328227 108.42120192 26.97671413 108.42716026 C33.04940855 108.43917556 39.12203798 108.4417008 45.19473832 108.43936 C50.13069045 108.4375769 55.06662916 108.43932631 60.00257969 108.44358444 C61.05637764 108.44447723 61.05637764 108.44447723 62.13146444 108.44538805 C63.55866039 108.4465998 64.98585633 108.44781393 66.41305227 108.44903042 C79.79678935 108.45990643 93.18050124 108.45774313 106.56423975 108.45164558 C118.80750135 108.44647591 131.0506834 108.45773304 143.29392927 108.47674379 C155.86664204 108.49611642 168.43931717 108.50437924 181.01204497 108.50062054 C188.07014875 108.49870768 195.12818482 108.50120437 202.18627644 108.51533508 C208.82237541 108.52848654 215.45834127 108.52599669 222.09444904 108.51292419 C224.53173278 108.5105526 226.96902765 108.51331386 229.40629864 108.52154732 C232.73001609 108.53196681 236.05319339 108.52395226 239.37689114 108.51123619 C240.34430436 108.51861048 241.31171758 108.52598476 242.30844635 108.53358251 C248.9982255 108.47963473 253.20753524 107.28822849 258.39509487 102.82451439 C262.86129501 97.63406558 264.08364182 93.41038006 264.11164761 86.60625267 C264.11851086 85.87695549 264.12537411 85.14765831 264.13244534 84.39626122 C264.15065659 81.99974831 264.14688362 79.60389375 264.14118862 77.20732689 C264.14575371 75.53112642 264.15106025 73.85492782 264.15707302 72.17873192 C264.16599339 68.6701197 264.16359396 65.16173523 264.15363979 61.65312767 C264.14216124 57.17202111 264.16234955 52.69170389 264.19155693 48.21070099 C264.20996611 44.74982833 264.20961696 41.28914309 264.20391941 37.82823372 C264.20376672 36.17692903 264.20976769 34.52561122 264.22221088 32.87435341 C264.44992572 20.90016825 264.44992572 20.90016825 259.70759487 10.13701439 C255.63492166 6.26797484 251.90992352 3.89128489 246.23970318 3.87695217 C245.34492331 3.86988658 244.45014344 3.86282099 243.52824903 3.85554129 C242.54927459 3.85795637 241.57030015 3.86037146 240.56165981 3.86285973 C238.99691595 3.85500471 238.99691595 3.85500471 237.40056109 3.846991 C233.89381777 3.83195068 230.38721984 3.83128496 226.88044643 3.8306179 C224.37069864 3.8229991 221.86095318 3.81457209 219.35121059 3.80539513 C212.52467506 3.7834148 205.69819009 3.77462471 198.87162399 3.76956868 C194.60807806 3.76631117 190.34454116 3.75978834 186.08100033 3.75256729 C174.27360354 3.7330012 162.46621513 3.71659721 150.65880108 3.71369076 C149.52546783 3.7134094 149.52546783 3.7134094 148.36923896 3.71312236 C146.83757671 3.71275612 145.30591446 3.71239242 143.77425221 3.71203125 C142.63379101 3.71175704 142.63379101 3.71175704 141.47029018 3.71147728 C140.70905329 3.71129673 139.9478164 3.71111618 139.16351172 3.71093016 C126.83095965 3.70738913 114.49858226 3.6803713 102.16609076 3.64297939 C89.50073715 3.60488598 76.83547018 3.5855332 64.17005801 3.58523124 C57.06039485 3.58464688 49.95094003 3.57616883 42.84133053 3.54723358 C36.1534298 3.52013964 29.46601106 3.51882359 22.77805233 3.53488922 C20.32386279 3.53670723 17.86964976 3.5299815 15.41551113 3.51407051 C12.06367216 3.49366507 8.71328471 3.50413108 5.3614645 3.52228355 C4.39141295 3.50908359 3.42136139 3.49588362 2.42191434 3.48228365 C-4.04549555 3.56222251 -8.26522081 5.02027613 -13.29240513 9.13701439 C-19.17987528 15.33435139 -19.60555549 21.06774634 -19.70646763 29.25029564 C-19.72583378 30.21984688 -19.74519993 31.18939812 -19.76515293 32.1883297 C-19.82477949 35.27530267 -19.87126653 38.36231326 -19.91740513 41.44951439 C-19.95560047 43.54653557 -19.9946531 45.64354133 -20.03459263 47.74053001 C-20.13046722 52.8725657 -20.2145609 58.00467482 -20.29240513 63.13701439 C-21.28240513 62.47701439 -22.27240513 61.81701439 -23.29240513 61.13701439 C-23.64212132 59.31789207 -23.64212132 59.31789207 -23.60466099 57.08965111 C-23.59732441 56.25473137 -23.58998783 55.41981163 -23.58242893 54.55959129 C-23.55761951 53.65443779 -23.5328101 52.74928429 -23.50724888 51.81670189 C-23.49029469 50.88407524 -23.47334049 49.95144859 -23.45587254 48.99056053 C-23.41529399 47.0115377 -23.36684365 45.03266324 -23.31120396 43.05400658 C-23.23079044 40.04514037 -23.18667825 37.03727165 -23.14592075 34.02763939 C-23.10191034 32.10310833 -23.05575342 30.17862493 -23.00724888 28.25420189 C-22.99660908 27.36119377 -22.98596928 26.46818565 -22.97500706 25.54811668 C-22.72200527 18.20088233 -20.73166016 12.96141495 -15.91740513 7.38701439 C-10.92406403 3.10700773 -6.6890572 0.02045922 0 0 Z " fill="#E6E8E9" transform="translate(415.292405128479,65.86298561096191)"/>
<path d="M0 0 C1.55314786 3.31411127 3.10151378 6.63038299 4.64453125 9.94921875 C6.46122611 13.85434667 8.29778455 17.74983083 10.13671875 21.64453125 C11.23725461 23.99205839 12.33751393 26.33971519 13.4375 28.6875 C13.98180664 29.83395996 14.52611328 30.98041992 15.08691406 32.16162109 C15.59319336 33.24652832 16.09947266 34.33143555 16.62109375 35.44921875 C17.0792749 36.42205811 17.53745605 37.39489746 18.00952148 38.3972168 C19 41 19 41 19 45 C14.51713009 46.00228624 10.03307874 46.99903835 5.54785156 47.99072266 C4.02277592 48.32872816 2.4980318 48.66823313 0.97363281 49.00927734 C-1.21984413 49.49973536 -3.41446382 49.98475649 -5.609375 50.46875 C-6.2886908 50.62186646 -6.96800659 50.77498291 -7.66790771 50.93273926 C-10.90072174 51.64025097 -13.66450614 52 -17 52 C-17.22912334 35.32491215 -16.55430596 18.66308571 -16 2 C-15.41089844 2.19464844 -14.82179688 2.38929688 -14.21484375 2.58984375 C-9.48136826 3.46641329 -5.15740511 -0.22115802 0 0 Z " fill="#FDFDFD" transform="translate(463,360)"/>
<path d="M0 0 C2.64 0.33 5.28 0.66 8 1 C8.43344081 5.37360221 8.86040642 9.74777722 9.28173828 14.12255859 C9.42552746 15.60645009 9.5709939 17.09018017 9.71826172 18.57373047 C10.52718939 26.73454501 11.19438635 34.78717681 11 43 C1.31445564 40.7392746 -8.36054531 38.45165321 -18 36 C-16.40206013 31.74947994 -14.39880329 27.75201922 -12.3046875 23.73046875 C-11.95238068 23.04946609 -11.60007385 22.36846344 -11.23709106 21.66682434 C-10.11855374 19.50592266 -8.99682833 17.34669467 -7.875 15.1875 C-7.11306968 13.71690647 -6.35134867 12.24620448 -5.58984375 10.77539062 C-3.72898316 7.18233361 -1.86526282 3.59077352 0 0 Z " fill="#FBFBFB" transform="translate(263,364)"/>
<path d="M0 0 C3.88924158 1.8057193 5.51165031 3.26747547 7.875 6.8125 C9.19527938 10.55329157 9.49277138 13.05782897 9 17 C6.42422676 21.61862787 4.0807921 25.30640263 -1 27 C-5.6594918 27.54138857 -9.10553068 27.43067041 -13.375 25.375 C-17.34730892 21.78100622 -18.80497277 18.82025411 -19.375 13.5 C-18.83754898 8.48379046 -17.22428653 5.45384026 -14 1.625 C-9.40697071 -0.86289087 -5.10798477 -0.73506976 0 0 Z " fill="#FBFBFC" transform="translate(364,381)"/>
<path d="M0 0 C52.8 0 105.6 0 160 0 C160 0.66 160 1.32 160 2 C156.67681047 3.10772984 154.2180178 3.12306668 150.71687317 3.12025452 C148.74177513 3.12231651 148.74177513 3.12231651 146.72677612 3.12442017 C145.26422096 3.12088099 143.80166604 3.11724618 142.33911133 3.11352539 C140.80174257 3.11324337 139.26437368 3.11340154 137.727005 3.1139679 C133.54961817 3.1142553 129.37225994 3.10836778 125.19487977 3.10139394 C120.83066086 3.09515091 116.46644132 3.09455585 112.10221863 3.09336853 C103.83622543 3.09025802 95.57024543 3.0820484 87.30425805 3.07201904 C77.89445396 3.06084922 68.48464925 3.05534526 59.07484019 3.05032361 C39.71655264 3.03986557 20.35827738 3.02227153 1 3 C0.67 2.01 0.34 1.02 0 0 Z " fill="#E8EAEB" transform="translate(509,356)"/>
<path d="M0 0 C1.4800841 0.11362262 2.95910074 0.24122908 4.4375 0.375 C5.26121094 0.44460938 6.08492187 0.51421875 6.93359375 0.5859375 C7.61550781 0.72257812 8.29742187 0.85921875 9 1 C10.31049766 3.62099532 9.77458619 4.57722675 9.03125 7.3828125 C8.79293457 8.29216553 8.55461914 9.20151855 8.30908203 10.13842773 C8.04208496 11.12399658 7.77508789 12.10956543 7.5 13.125 C7.23171387 14.1344165 6.96342773 15.14383301 6.68701172 16.18383789 C3.64775218 27.5100056 0.34664122 38.76143544 -3 50 C-10.875 49.125 -10.875 49.125 -12 48 C-11.53144655 41.20200425 -9.66957221 34.99372473 -7.6875 28.5 C-4.86220117 19.05188753 -2.27206924 9.59631729 0 0 Z " fill="#F6F9FB" transform="translate(86,309)"/>
<path d="M0 0 C4.455 0.99 4.455 0.99 9 2 C6.70371022 11.30672739 4.34565751 20.59659925 1.9375 29.875 C1.69241699 30.8244751 1.44733398 31.7739502 1.19482422 32.75219727 C-0.40137553 38.88021632 -2.14809991 44.94423175 -4 51 C-6.97 50.34 -9.94 49.68 -13 49 C-10.84793491 32.35878384 -5.38677981 15.85252344 0 0 Z " fill="#F6FAFB" transform="translate(110,117)"/>
<path d="M0 0 C4.82604496 2.16615659 8.08472271 5.64072688 11.8125 9.3125 C12.51826172 9.97701172 13.22402344 10.64152344 13.95117188 11.32617188 C14.61310547 11.97779297 15.27503906 12.62941406 15.95703125 13.30078125 C16.86932495 14.18503784 16.86932495 14.18503784 17.80004883 15.0871582 C19 17 19 17 18.7722168 19.61108398 C17.90636393 22.28967086 16.90262252 23.68882561 15 25.75 C14.37996094 26.42546875 13.75992188 27.1009375 13.12109375 27.796875 C9.47036014 31.5887972 5.76010737 35.31662951 2 39 C-3.18010355 36.49038462 -3.18010355 36.49038462 -5 34 C-4.73592902 29.71827771 -1.88888075 27.589303 1.0625 24.75 C1.98160156 23.85796875 2.90070313 22.9659375 3.84765625 22.046875 C4.55792969 21.37140625 5.26820313 20.6959375 6 20 C4.46356148 16.31930113 2.21849055 14.01224796 -0.625 11.25 C-1.44226563 10.45078125 -2.25953125 9.6515625 -3.1015625 8.828125 C-3.72804688 8.22484375 -4.35453125 7.6215625 -5 7 C-3.64062915 4.1394109 -2.35479531 2.14072301 0 0 Z " fill="#F5F9FB" transform="translate(127,123)"/>
<path d="M0 0 C2.54429518 1.11075573 4.05321641 2.78652699 5.89746094 4.82836914 C4.31078516 8.73122681 1.76395612 11.16357896 -1.22753906 14.07836914 C-2.13761719 14.97040039 -3.04769531 15.86243164 -3.98535156 16.78149414 C-5.03335938 17.79469727 -5.03335938 17.79469727 -6.10253906 18.82836914 C-5.73902344 19.2524707 -5.37550781 19.67657227 -5.00097656 20.11352539 C-1.36816406 24.35180664 2.26464844 28.59008789 5.89746094 32.82836914 C3.58746094 34.80836914 1.27746094 36.78836914 -1.10253906 38.82836914 C-3.96035678 36.14491765 -6.78390334 33.42790096 -9.60253906 30.70336914 C-10.41335937 29.94282227 -11.22417969 29.18227539 -12.05957031 28.39868164 C-12.8265625 27.65102539 -13.59355469 26.90336914 -14.38378906 26.13305664 C-15.09599609 25.45227051 -15.80820313 24.77148438 -16.54199219 24.07006836 C-18.61746866 21.08868148 -18.63006177 19.3920587 -18.10253906 15.82836914 C-16.69726562 13.66259766 -16.69726562 13.66259766 -14.74316406 11.70727539 C-14.03933594 11.00022461 -13.33550781 10.29317383 -12.61035156 9.56469727 C-11.86527344 8.84733398 -11.12019531 8.1299707 -10.35253906 7.39086914 C-9.62292969 6.64643555 -8.89332031 5.90200195 -8.14160156 5.13500977 C-2.70196267 -0.22056198 -2.70196267 -0.22056198 0 0 Z " fill="#F6F9FB" transform="translate(89.1025390625,123.171630859375)"/>
<path d="M0 0 C2.26284544 0.94560943 3.45361472 1.76856958 4.87011719 3.78149414 C4.60662705 8.06320893 1.75917156 10.19202411 -1.19238281 13.03149414 C-2.11148438 13.92352539 -3.03058594 14.81555664 -3.97753906 15.73461914 C-4.6878125 16.41008789 -5.39808594 17.08555664 -6.12988281 17.78149414 C-4.54320703 21.68435181 -1.996378 24.11670396 0.99511719 27.03149414 C1.90519531 27.92352539 2.81527344 28.81555664 3.75292969 29.73461914 C4.45160156 30.41008789 5.15027344 31.08555664 5.87011719 31.78149414 C3.89011719 34.09149414 1.91011719 36.40149414 -0.12988281 38.78149414 C-4.59267665 35.11208587 -8.880567 31.26265605 -13.06738281 27.28149414 C-14.02515625 26.38430664 -14.98292969 25.48711914 -15.96972656 24.56274414 C-18.12988281 21.78149414 -18.12988281 21.78149414 -18.93066406 18.96508789 C-17.64081995 13.83717104 -14.11251162 10.93777949 -10.37988281 7.34399414 C-9.65027344 6.59956055 -8.92066406 5.85512695 -8.16894531 5.08813477 C-2.71774938 -0.27881542 -2.71774938 -0.27881542 0 0 Z " fill="#FAFCFD" transform="translate(66.1298828125,315.218505859375)"/>
<path d="M0 0 C5.2729631 0.89942848 8.09204475 4.53991702 11.75 8.1875 C12.44738281 8.84814453 13.14476563 9.50878906 13.86328125 10.18945312 C16.71011657 13.01121847 18.71678812 15.10552249 19.9375 18.9609375 C18.40800634 23.91904612 14.92558436 26.8986372 11.25 30.4375 C10.52039063 31.18193359 9.79078125 31.92636719 9.0390625 32.69335938 C4.94097051 36.72811722 4.94097051 36.72811722 3 38 C0.46775928 37.74021602 -0.75177968 37.17974575 -2.8125 35.6875 C-4 34 -4 34 -3.890625 32.22265625 C-2.5960329 28.99185403 -0.4318375 27.14961582 2.0625 24.75 C2.98160156 23.85796875 3.90070313 22.9659375 4.84765625 22.046875 C5.55792969 21.37140625 6.26820312 20.6959375 7 20 C5.41332422 16.09714233 2.86649519 13.66479018 -0.125 10.75 C-1.03507812 9.85796875 -1.94515625 8.9659375 -2.8828125 8.046875 C-3.58148438 7.37140625 -4.28015625 6.6959375 -5 6 C-3.35 4.02 -1.7 2.04 0 0 Z " fill="#F9FBFC" transform="translate(103,315)"/>
<path d="M0 0 C1.04234885 -0.0034177 2.0846977 -0.0068354 3.15863287 -0.01035666 C6.65043831 -0.01694386 10.14147463 0.00505538 13.63320923 0.0269165 C16.13652529 0.02804479 18.63984267 0.02741148 21.14315796 0.02514648 C26.53213765 0.02423569 31.92087805 0.03557894 37.30979538 0.05809784 C45.10117924 0.0906348 52.89246947 0.10102657 60.6839139 0.10604981 C73.32559415 0.11479981 85.96717103 0.14140736 98.60879517 0.17926025 C110.88743575 0.21598798 123.16604823 0.244296 135.44473267 0.2612915 C136.58041347 0.26286784 136.58041347 0.26286784 137.73903732 0.26447603 C141.53736744 0.26969626 145.33569775 0.27475107 149.1340282 0.27972364 C180.63464417 0.32117651 212.13513169 0.39191466 243.63565063 0.48101807 C243.63565063 0.81101807 243.63565063 1.14101807 243.63565063 1.48101807 C242.36158922 1.48156283 241.08752781 1.4821076 239.77485847 1.48266888 C209.51079852 1.49672212 179.24689358 1.53651429 148.98291863 1.60787369 C145.25550941 1.61664012 141.52809972 1.62518999 137.8006897 1.63360596 C137.05864972 1.63528502 136.31660975 1.63696408 135.55208372 1.63869403 C123.54725941 1.66534203 111.54248285 1.67445753 99.537632 1.67705949 C87.21360183 1.68012219 74.88970939 1.70210541 62.56574142 1.74154264 C54.96509669 1.765272 47.36472717 1.77435697 39.76405053 1.76453117 C33.92948106 1.75857198 28.0951876 1.77897557 22.26068687 1.80907822 C19.87186637 1.81730937 17.48299897 1.81706401 15.09418297 1.80761528 C11.82596877 1.79596993 8.55929371 1.81514956 5.29119873 1.84178162 C4.35148102 1.83110836 3.41176331 1.8204351 2.4435693 1.80943841 C-4.9008208 1.92067617 -11.44695697 3.98813023 -17.02194488 8.9589898 C-22.40373655 15.06090553 -22.68277897 20.83982205 -22.77841187 28.59429932 C-22.79777802 29.56385056 -22.81714417 30.53340179 -22.83709717 31.53233337 C-22.89672373 34.61930634 -22.94321076 37.70631694 -22.98934937 40.79351807 C-23.0275447 42.89053925 -23.06659734 44.987545 -23.10653687 47.08453369 C-23.20241145 52.21656938 -23.28650514 57.3486785 -23.36434937 62.48101807 C-24.35434937 61.82101807 -25.34434937 61.16101807 -26.36434937 60.48101807 C-26.71406555 58.66189575 -26.71406555 58.66189575 -26.67660522 56.43365479 C-26.66926865 55.59873505 -26.66193207 54.76381531 -26.65437317 53.90359497 C-26.62956375 52.99844147 -26.60475433 52.09328796 -26.57919312 51.16070557 C-26.56223892 50.22807892 -26.54528473 49.29545227 -26.52781677 48.33456421 C-26.48723822 46.35554138 -26.43878789 44.37666692 -26.38314819 42.39801025 C-26.30273467 39.38914405 -26.25862249 36.38127533 -26.21786499 33.37164307 C-26.17385457 31.44711201 -26.12769766 29.5226286 -26.07919312 27.59820557 C-26.06855331 26.70519745 -26.05791351 25.81218933 -26.04695129 24.89212036 C-25.7939495 17.54488601 -23.80360439 12.30541862 -18.98934937 6.73101807 C-12.44336547 1.12017473 -8.4452846 -0.10135629 0 0 Z " fill="#E1E4E5" transform="translate(418.3643493652344,66.51898193359375)"/>
<path d="M0 0 C2.1842804 0.3561554 2.1842804 0.3561554 4 1 C3.5657427 5.41571802 0.56635918 7.86641804 -2.42578125 10.82421875 C-3.24178047 11.64452324 -3.24178047 11.64452324 -4.07426453 12.48139954 C-5.22477779 13.63395146 -6.37907705 14.78273478 -7.53686523 15.92797852 C-9.30615798 17.68121553 -11.05889319 19.44986267 -12.81054688 21.22070312 C-13.93133104 22.33950482 -15.05304549 23.45737553 -16.17578125 24.57421875 C-16.69884354 25.10335373 -17.22190582 25.63248871 -17.76081848 26.17765808 C-22.30641134 30.63675945 -22.30641134 30.63675945 -26 31 C-26.6438446 29.1842804 -26.6438446 29.1842804 -27 27 C-25.18560506 24.67556511 -23.42154391 22.72121924 -21.33203125 20.66796875 C-20.74080978 20.07196365 -20.14958832 19.47595856 -19.54045105 18.8618927 C-18.28628725 17.60432429 -17.02577851 16.35305684 -15.75952148 15.10766602 C-13.81986244 13.19476089 -11.90828072 11.25669244 -9.99804688 9.31445312 C-8.77764165 8.09735189 -7.55568633 6.88180258 -6.33203125 5.66796875 C-5.7589473 5.08476364 -5.18586334 4.50155853 -4.59541321 3.90068054 C-2.94848633 2.30151367 -2.94848633 2.30151367 0 0 Z " fill="#E2E5E6" transform="translate(592,397)"/>
<path d="M0 0 C0.99 0.66 1.98 1.32 3 2 C1.43564687 5.58881011 -0.7355077 8.25535918 -3.3125 11.1875 C-4.45138672 12.50814453 -4.45138672 12.50814453 -5.61328125 13.85546875 C-8.23688243 16.21284526 -9.47288761 17.06675923 -13 17 C-15.23828125 15.34765625 -15.23828125 15.34765625 -17.3125 13.0625 C-18.00988281 12.31097656 -18.70726562 11.55945313 -19.42578125 10.78515625 C-19.94527344 10.19605469 -20.46476562 9.60695313 -21 9 C-20.34 7.68 -19.68 6.36 -19 5 C-15.58875982 6.41154766 -14.1543777 8.06221223 -12 11 C-11.34 11 -10.68 11 -10 11 C-8.29515534 9.31477271 -8.29515534 9.31477271 -6.5625 7.1875 C-4.45536324 4.68897282 -2.34758602 2.2757944 0 0 Z " fill="#EEF4F7" transform="translate(448,114)"/>
<path d="M0 0 C-0.15007431 4.95245213 -2.86069058 7.36965314 -6.11328125 10.7421875 C-8 12 -8 12 -10.23046875 11.6953125 C-10.81441406 11.46585937 -11.39835938 11.23640625 -12 11 C-11.41781807 7.49138358 -10.18286308 5.75070647 -7.6875 3.25 C-6.79611328 2.32960938 -6.79611328 2.32960938 -5.88671875 1.390625 C-4 0 -4 0 0 0 Z " fill="#E2E5E6" transform="translate(593,416)"/>
<path d="M0 0 C2.5625 0.1875 2.5625 0.1875 4.5625 2.1875 C4.00694444 6.74305556 4.00694444 6.74305556 2.5625 8.1875 C0.0625 8.3125 0.0625 8.3125 -2.4375 8.1875 C-3.4375 7.1875 -3.4375 7.1875 -3.5625 4.1875 C-3.39891479 0.26145498 -3.39891479 0.26145498 0 0 Z " fill="#E2E5E6" transform="translate(57.4375,245.8125)"/>
<path d="M0 0 C2.5 0.125 2.5 0.125 3.5 1.125 C3.625 4.125 3.625 4.125 3.5 7.125 C2.5 8.125 2.5 8.125 0.0625 8.3125 C-2.5 8.125 -2.5 8.125 -4.5 6.125 C-3.77607362 0.18880368 -3.77607362 0.18880368 0 0 Z " fill="#E2E5E6" transform="translate(44.5,245.875)"/>
<path d="M0 0 C2.5625 0.1875 2.5625 0.1875 4.5625 2.1875 C4.00694444 6.74305556 4.00694444 6.74305556 2.5625 8.1875 C0.0625 8.3125 0.0625 8.3125 -2.4375 8.1875 C-3.4375 7.1875 -3.4375 7.1875 -3.5625 4.1875 C-3.39891479 0.26145498 -3.39891479 0.26145498 0 0 Z " fill="#E2E5E6" transform="translate(30.4375,245.8125)"/>
<path d="M0 0 C2.625 0.375 2.625 0.375 5 1 C6.125 5.75 6.125 5.75 5 8 C3.00045254 8.04254356 0.99958364 8.04080783 -1 8 C-2 7 -2 7 -2.1875 4.5625 C-2 2 -2 2 0 0 Z " fill="#E2E4E5" transform="translate(79,54)"/>
<path d="M0 0 C2.00720923 0.28674418 4.0085944 0.61866701 6 1 C6.04254356 2.99954746 6.04080783 5.00041636 6 7 C5 8 5 8 2.5625 8.1875 C0 8 0 8 -2 6 C-1.44444444 1.44444444 -1.44444444 1.44444444 0 0 Z " fill="#E2E5E6" transform="translate(65,54)"/>
<path d="M0 0 C2.625 0.375 2.625 0.375 5 1 C6.125 5.75 6.125 5.75 5 8 C3.00045254 8.04254356 0.99958364 8.04080783 -1 8 C-2 7 -2 7 -2.1875 4.5625 C-2 2 -2 2 0 0 Z " fill="#E2E5E6" transform="translate(52,54)"/>
<path d="M0 0 C2.5 0.125 2.5 0.125 3.5 1.125 C3.625 3.625 3.625 3.625 3.5 6.125 C2.5 7.125 2.5 7.125 0 7.25 C-2.5 7.125 -2.5 7.125 -3.5 6.125 C-3.625 3.625 -3.625 3.625 -3.5 1.125 C-2.5 0.125 -2.5 0.125 0 0 Z " fill="#E5E7E8" transform="translate(439.5,38.875)"/>
<path d="M0 0 C2.5 0.125 2.5 0.125 3.5 1.125 C3.625 3.625 3.625 3.625 3.5 6.125 C2.5 7.125 2.5 7.125 0 7.25 C-2.5 7.125 -2.5 7.125 -3.5 6.125 C-3.625 3.625 -3.625 3.625 -3.5 1.125 C-2.5 0.125 -2.5 0.125 0 0 Z " fill="#E4E7E8" transform="translate(451.5,24.875)"/>
<path d="M0 0 C2.5 0.125 2.5 0.125 3.5 1.125 C3.625 3.625 3.625 3.625 3.5 6.125 C2.5 7.125 2.5 7.125 0 7.25 C-2.5 7.125 -2.5 7.125 -3.5 6.125 C-3.625 3.625 -3.625 3.625 -3.5 1.125 C-2.5 0.125 -2.5 0.125 0 0 Z " fill="#E4E7E8" transform="translate(439.5,24.875)"/>
<path d="M0 0 C1.2065625 0.0309375 1.2065625 0.0309375 2.4375 0.0625 C2.4375 2.3725 2.4375 4.6825 2.4375 7.0625 C0.77138095 7.105221 -0.89632885 7.10313832 -2.5625 7.0625 C-3.5625 6.0625 -3.5625 6.0625 -3.6875 3.5625 C-3.51717518 0.15600356 -3.41884482 0.08338646 0 0 Z " fill="#E3E6E7" transform="translate(427.5625,38.9375)"/>
<path d="M0 0 C1.4540625 0.0309375 1.4540625 0.0309375 2.9375 0.0625 C2.9375 2.0425 2.9375 4.0225 2.9375 6.0625 C0.9575 6.0625 -1.0225 6.0625 -3.0625 6.0625 C-3.44468767 4.40635343 -3.77645102 2.73792976 -4.0625 1.0625 C-3.0625 0.0625 -3.0625 0.0625 0 0 Z " fill="#E2E5E6" transform="translate(427.0625,11.9375)"/>
<path d="M0 0 C1.98 0 3.96 0 6 0 C6 1.98 6 3.96 6 6 C4.02 6 2.04 6 0 6 C0 4.02 0 2.04 0 0 Z " fill="#E1E4E5" transform="translate(461,25)"/>
<path d="M0 0 C1.98 0 3.96 0 6 0 C6 1.98 6 3.96 6 6 C4.02 6 2.04 6 0 6 C0 4.02 0 2.04 0 0 Z " fill="#E1E4E5" transform="translate(424,25)"/>
<path d="M0 0 C1.98 0 3.96 0 6 0 C6 1.98 6 3.96 6 6 C4.02 6 2.04 6 0 6 C0 4.02 0 2.04 0 0 Z " fill="#E1E4E5" transform="translate(412,25)"/>
<path d="M0 0 C1.98 0 3.96 0 6 0 C6 1.98 6 3.96 6 6 C4.02 6 2.04 6 0 6 C0 4.02 0 2.04 0 0 Z " fill="#E1E4E5" transform="translate(448,12)"/>
<path d="M0 0 C1.98 0 3.96 0 6 0 C6 1.98 6 3.96 6 6 C4.02 6 2.04 6 0 6 C0 4.02 0 2.04 0 0 Z " fill="#E1E4E5" transform="translate(436,12)"/>
<path d="M0 0 C0.33 0 0.66 0 1 0 C1 3.3 1 6.6 1 10 C-2.3 9.34 -5.6 8.68 -9 8 C-9 7.67 -9 7.34 -9 7 C-6.03 7 -3.06 7 0 7 C0 4.69 0 2.38 0 0 Z " fill="#CED2D6" transform="translate(273,397)"/>
</svg>
