<?xml version="1.0" standalone="no"?>
<!DOCTYPE svg PUBLIC "-//W3C//DTD SVG 20010904//EN"
 "http://www.w3.org/TR/2001/REC-SVG-20010904/DTD/svg10.dtd">
<svg version="1.0" xmlns="http://www.w3.org/2000/svg"
 width="500.000000pt" height="500.000000pt" viewBox="0 0 500.000000 500.000000"
 preserveAspectRatio="xMidYMid meet">

<g transform="translate(0.000000,500.000000) scale(0.100000,-0.100000)"
fill="#000000" stroke="none">
<path d="M0 2500 l0 -2500 2500 0 2500 0 0 2500 0 2500 -2500 0 -2500 0 0
-2500z m2687 1055 c382 -50 547 -202 530 -485 -11 -188 -108 -327 -294 -419
-57 -29 -198 -71 -235 -71 -39 0 -15 -17 40 -28 138 -29 254 -115 324 -242 20
-36 78 -166 128 -289 171 -419 224 -499 333 -501 26 0 37 -4 37 -15 0 -22 -43
-30 -165 -30 -94 0 -116 3 -151 22 -99 53 -144 131 -308 531 -53 128 -110 263
-128 299 -47 94 -113 164 -190 199 -58 26 -74 29 -210 32 l-148 4 0 24 0 24
163 0 c231 0 332 29 434 123 88 81 130 199 119 337 -13 175 -96 304 -243 379
-120 60 -147 64 -518 70 l-340 6 -3 23 -3 22 355 0 c262 0 386 -4 473 -15z
m-560 -181 c-3 -30 -11 -62 -18 -70 -16 -20 -76 -18 -87 3 -9 15 -13 14 -46
-6 -20 -13 -36 -26 -36 -30 0 -4 19 -14 43 -21 23 -7 66 -21 95 -32 48 -18 53
-23 50 -46 -3 -24 -13 -30 -105 -63 l-103 -36 0 24 c0 16 8 27 25 33 20 8 25
16 25 45 0 29 -4 36 -25 41 -22 5 -25 11 -25 53 0 45 2 49 40 70 22 12 40 26
40 32 0 5 -18 9 -40 9 -36 0 -40 3 -40 25 l0 25 106 0 107 0 -6 -56z m-2 -339
c0 -16 -8 -21 -37 -23 -37 -3 -38 -4 -38 -43 0 -39 0 -39 40 -39 33 0 40 -3
40 -20 0 -19 -7 -20 -105 -20 -98 0 -105 1 -105 20 0 17 7 20 45 20 l45 0 0
40 0 40 -45 0 c-41 0 -45 2 -45 25 l0 26 103 -3 c94 -3 102 -4 102 -23z m3
-212 c3 -22 1 -23 -77 -23 -70 0 -82 -3 -91 -20 -8 -14 -8 -26 0 -40 9 -17 21
-20 90 -20 73 0 80 -2 80 -20 0 -18 -7 -20 -85 -20 -103 0 -125 14 -125 83 0
69 28 87 135 84 64 -2 70 -4 73 -24z m-3 -208 c0 -18 -8 -20 -82 -23 l-83 -3
0 -39 c0 -33 -3 -40 -20 -40 -18 0 -20 7 -20 65 l0 66 103 -3 c94 -3 102 -4
102 -23z m-161 -207 c-22 -68 9 -86 48 -28 30 45 78 53 102 18 27 -38 16 -106
-15 -96 -9 3 -13 17 -11 41 4 43 -20 52 -39 15 -19 -37 -51 -68 -71 -68 -33 0
-58 36 -58 83 0 49 5 57 32 57 16 0 18 -4 12 -22z m166 -168 c0 -19 -7 -20
-105 -20 -98 0 -105 1 -105 20 0 19 7 20 105 20 98 0 105 -1 105 -20z m0 -87
c0 -24 -11 -34 -75 -71 -41 -24 -75 -44 -75 -45 0 -1 33 -2 72 -2 61 0 73 -3
76 -17 3 -16 -7 -18 -102 -18 l-106 0 0 28 c0 23 10 32 73 67 l72 40 -72 3
c-65 3 -73 5 -73 22 0 19 7 20 105 20 l105 0 0 -27z m-28 -223 c24 -30 32 -63
24 -104 -5 -27 -10 -33 -25 -29 -15 4 -18 12 -14 42 7 49 -15 71 -67 71 -31 0
-43 -5 -56 -25 -8 -13 -13 -29 -9 -35 10 -16 45 -12 45 5 0 8 9 15 20 15 17 0
20 -7 20 -40 l0 -41 -57 3 -58 3 -3 44 c-5 62 4 88 36 106 40 23 120 14 144
-15z m28 -200 c0 -18 -7 -20 -85 -20 l-85 0 0 -34 c0 -19 -2 -40 -5 -48 -4 -9
22 -22 82 -44 82 -29 88 -33 88 -58 0 -26 -6 -30 -95 -62 -52 -19 -98 -34
-102 -34 -5 0 -8 11 -8 24 0 18 6 25 23 28 18 2 23 10 25 41 3 32 0 38 -22 47
-25 9 -26 12 -26 95 l0 85 105 0 c98 0 105 -1 105 -20z"/>
<path d="M2040 3360 c0 -25 29 -38 41 -19 15 25 10 39 -16 39 -18 0 -25 -5
-25 -20z"/>
<path d="M2010 3174 c0 -21 3 -24 28 -18 43 10 45 20 7 31 -33 11 -35 10 -35
-13z"/>
<path d="M2010 1526 c0 -23 2 -24 32 -15 18 5 35 9 38 9 8 1 -24 17 -47 24
-20 6 -23 4 -23 -18z"/>
</g>
</svg>
