<?xml version="1.0" standalone="no"?>
<!DOCTYPE svg PUBLIC "-//W3C//DTD SVG 20010904//EN"
 "http://www.w3.org/TR/2001/REC-SVG-20010904/DTD/svg10.dtd">
<svg version="1.0" xmlns="http://www.w3.org/2000/svg"
 width="372.000000pt" height="472.000000pt" viewBox="0 0 372.000000 472.000000"
 preserveAspectRatio="xMidYMid meet">

<g transform="translate(0.000000,472.000000) scale(0.100000,-0.100000)"
fill="#000000" stroke="none">
<path d="M0 2360 l0 -2360 1860 0 1860 0 0 2360 0 2360 -1860 0 -1860 0 0
-2360z m1665 2110 c258 -24 370 -42 515 -82 284 -78 453 -180 592 -356 49 -62
103 -197 124 -312 45 -250 -9 -518 -148 -723 -111 -165 -349 -343 -543 -405
-22 -7 -49 -17 -60 -21 -32 -13 -86 -28 -145 -41 -30 -7 -68 -16 -84 -21 -16
-5 -41 -9 -56 -9 -14 0 -35 -6 -46 -14 -18 -14 -18 -15 11 -20 97 -20 139 -31
218 -58 343 -115 505 -309 722 -863 26 -66 53 -133 60 -150 7 -16 37 -88 65
-160 28 -71 59 -146 67 -165 8 -19 21 -48 28 -65 154 -363 265 -538 374 -592
45 -23 70 -28 131 -29 l75 -1 3 -30 c3 -26 -1 -31 -35 -41 -66 -19 -194 -32
-310 -32 -208 0 -345 57 -461 193 -62 72 -148 228 -222 402 -35 84 -63 148
-83 195 -9 19 -25 60 -37 90 -22 57 -33 82 -69 162 -11 26 -21 50 -21 53 0 3
-9 25 -20 50 -11 25 -29 65 -40 90 -11 25 -20 49 -20 55 0 6 -4 18 -9 28 -5 9
-14 31 -21 47 -7 17 -16 38 -21 47 -5 10 -9 22 -9 28 0 27 -155 343 -203 415
-72 107 -171 197 -267 242 -47 22 -105 45 -130 51 -25 6 -56 14 -70 18 -14 4
-142 10 -285 13 l-260 6 0 45 0 45 335 6 c184 3 349 9 365 13 219 52 275 74
395 152 141 92 262 258 301 414 49 191 50 314 8 515 -72 340 -321 574 -724
680 -178 47 -198 48 -828 46 -661 -2 -647 -4 -647 58 0 15 3 31 7 34 10 11
1357 8 1478 -3z m-947 -340 c5 -93 -5 -145 -34 -180 -23 -27 -32 -30 -81 -30
-49 0 -58 4 -84 31 -16 17 -33 29 -37 27 -31 -12 -132 -85 -132 -95 0 -7 1
-13 3 -13 1 0 54 -18 117 -41 63 -22 142 -49 174 -60 76 -25 86 -34 86 -78 0
-48 -14 -64 -75 -84 -27 -9 -102 -34 -165 -57 -167 -60 -170 -61 -176 -45 -3
7 -4 28 -2 46 3 29 8 35 38 44 57 17 60 21 60 95 l0 69 -47 14 -48 14 -3 90
-3 90 40 26 c23 15 44 27 49 27 4 0 23 13 42 28 51 44 38 60 -52 64 l-73 3 -3
43 -3 42 203 -2 203 -3 3 -65z m-10 -679 c8 -5 12 -23 10 -47 l-3 -39 -75 -5
-75 -5 -3 -54 c-6 -98 -3 -101 83 -101 l75 0 0 -40 0 -40 -205 0 -205 0 0 40
0 39 88 3 87 3 3 77 3 77 -88 3 -88 3 -3 33 c-6 63 -11 62 195 62 103 0 194
-4 201 -9z m10 -463 l-3 -43 -145 -5 c-80 -3 -153 -10 -163 -16 -11 -6 -21
-27 -24 -52 -5 -34 -2 -44 20 -66 26 -26 29 -26 172 -26 l146 0 -3 -42 -3 -43
-155 0 c-146 0 -157 1 -188 23 -47 34 -62 70 -62 149 0 80 20 121 71 146 27
13 65 17 187 17 l153 0 -3 -42z m-10 -377 c8 -5 12 -23 10 -47 l-3 -39 -165
-5 -165 -5 -3 -77 -3 -78 -34 0 -35 0 0 123 c0 68 3 127 7 130 9 10 376 8 391
-2z m-314 -420 c3 -5 1 -34 -5 -64 -15 -75 -7 -107 29 -107 27 0 44 20 81 92
27 52 58 73 111 73 34 0 54 -6 70 -20 47 -42 62 -123 36 -195 -11 -29 -17 -34
-37 -32 -36 6 -50 21 -39 42 15 28 12 96 -5 110 -25 21 -49 6 -80 -51 -39 -73
-53 -89 -93 -106 -43 -18 -91 -3 -127 38 -22 27 -25 40 -25 108 0 86 16 121
55 121 13 0 26 -4 29 -9z m324 -368 l3 -43 -205 0 -206 0 0 38 c0 21 3 42 7
46 4 3 95 5 202 4 l196 -3 3 -42z m0 -176 c3 -52 -5 -69 -47 -90 -89 -46 -221
-128 -221 -137 0 -6 56 -10 136 -10 l135 0 -3 -37 -3 -38 -200 0 -200 0 -3 51
c-3 57 2 63 91 113 20 11 54 31 75 43 20 11 54 30 75 41 20 12 37 24 37 29 0
4 -63 8 -140 8 l-140 0 0 40 0 40 203 -2 202 -3 3 -48z m-98 -407 c90 -46 131
-161 98 -271 -12 -42 -15 -44 -52 -30 -24 10 -24 12 -19 83 5 72 5 74 -26 105
-56 56 -169 57 -216 1 -21 -24 -25 -40 -23 -72 3 -41 3 -41 43 -41 38 0 40 2
45 35 4 31 8 35 35 35 l30 0 0 -80 0 -80 -101 -3 c-100 -3 -101 -2 -112 23 -7
14 -12 66 -12 114 0 105 18 141 90 177 60 31 164 33 220 4z m100 -440 l0 -40
-160 0 c-186 0 -176 6 -181 -114 -4 -77 -3 -80 21 -87 14 -4 77 -26 140 -49
63 -23 124 -44 135 -47 37 -11 55 -35 55 -74 0 -46 -13 -57 -120 -93 -41 -14
-120 -41 -175 -60 -55 -20 -106 -36 -113 -36 -19 0 -12 81 8 91 8 4 30 13 48
20 l33 12 -3 71 -3 70 -45 16 -45 16 -3 172 -2 172 205 0 205 0 0 -40z"/>
<path d="M545 4100 c-13 -21 5 -76 29 -89 43 -23 85 20 74 76 -2 14 -14 19
-50 21 -26 2 -49 -2 -53 -8z"/>
<path d="M487 3723 c-11 -10 -8 -71 3 -78 10 -6 53 4 113 27 30 12 36 28 10
28 -10 0 -36 7 -58 15 -46 16 -59 18 -68 8z"/>
<path d="M487 433 c-9 -9 -9 -65 1 -80 5 -8 25 -6 75 10 37 11 67 24 67 27 0
4 -19 12 -42 19 -24 7 -53 17 -66 22 -27 11 -27 11 -35 2z"/>
</g>
</svg>
