<?xml version="1.0" standalone="no"?>
<!DOCTYPE svg PUBLIC "-//W3C//DTD SVG 20010904//EN"
 "http://www.w3.org/TR/2001/REC-SVG-20010904/DTD/svg10.dtd">
<svg version="1.0" xmlns="http://www.w3.org/2000/svg"
 width="500.000000pt" height="500.000000pt" viewBox="0 0 500.000000 500.000000"
 preserveAspectRatio="xMidYMid meet">

<g transform="translate(0.000000,500.000000) scale(0.100000,-0.100000)"
fill="#000000" stroke="none">
<path d="M1860 3550 c0 -37 48 -50 182 -50 68 0 139 5 158 11 19 6 96 11 170
11 220 -1 369 -51 474 -161 93 -98 132 -211 123 -356 -6 -104 -36 -181 -94
-246 -80 -88 -175 -133 -305 -146 -62 -5 -68 -8 -68 -28 0 -20 10 -26 71 -45
57 -17 82 -32 126 -73 68 -64 103 -127 193 -347 187 -456 215 -515 284 -578
63 -58 132 -77 253 -68 104 7 123 12 123 32 0 9 -12 14 -36 14 -110 0 -169 86
-324 475 -40 99 -93 223 -119 275 -78 159 -175 238 -342 279 -69 16 -90 31
-45 31 43 0 199 50 267 86 201 106 304 320 258 536 -45 210 -228 324 -573 358
-60 5 -259 10 -443 10 -325 0 -333 0 -333 -20z"/>
<path d="M2040 3460 c0 -17 7 -20 40 -20 27 0 40 -4 40 -14 0 -7 -18 -25 -40
-40 -36 -23 -40 -31 -40 -66 0 -34 4 -42 25 -50 21 -8 25 -16 25 -49 0 -33 -4
-40 -25 -45 -16 -4 -25 -13 -25 -26 0 -26 1 -26 111 14 82 29 94 37 97 59 3
23 -3 27 -65 48 -37 12 -83 29 -102 36 l-34 14 36 25 c42 28 44 29 63 9 9 -8
26 -15 39 -15 39 0 55 25 55 86 l0 54 -100 0 c-93 0 -100 -1 -100 -20z m170
-45 c0 -31 -26 -43 -47 -22 -21 21 -9 47 22 47 20 0 25 -5 25 -25z m-25 -181
l30 -7 -30 -13 c-48 -21 -65 -18 -65 12 0 19 4 24 18 20 9 -3 31 -8 47 -12z"/>
<path d="M2040 3085 c0 -23 4 -25 45 -25 l45 0 0 -40 0 -40 -45 0 c-38 0 -45
-3 -45 -20 0 -19 7 -20 100 -20 93 0 100 1 100 20 0 17 -7 20 -40 20 l-40 0 0
40 0 40 40 0 c36 0 40 3 40 25 l0 25 -100 0 -100 0 0 -25z"/>
<path d="M2060 2870 c-27 -27 -27 -89 0 -118 18 -19 31 -22 100 -22 73 0 80 2
80 20 0 17 -8 19 -76 22 -60 2 -79 7 -88 21 -8 12 -8 22 0 35 9 13 28 18 88
20 68 3 76 5 76 22 0 18 -7 20 -80 20 -67 0 -83 -3 -100 -20z"/>
<path d="M2040 2620 c0 -47 3 -60 15 -60 11 0 15 11 15 40 l0 40 85 0 c78 0
85 2 85 20 0 19 -7 20 -100 20 l-100 0 0 -60z"/>
<path d="M2046 2464 c-8 -20 -8 -68 0 -89 9 -23 51 -37 74 -25 10 5 27 25 39
45 28 48 54 47 49 -2 -2 -29 1 -38 14 -41 26 -5 35 60 14 93 -27 40 -70 34
-100 -14 -14 -22 -29 -42 -34 -45 -19 -11 -33 22 -26 58 5 28 3 36 -9 36 -8 0
-18 -7 -21 -16z"/>
<path d="M2040 2290 c0 -19 7 -20 100 -20 93 0 100 1 100 20 0 19 -7 20 -100
20 -93 0 -100 -1 -100 -20z"/>
<path d="M2040 2210 c0 -17 8 -19 76 -22 l76 -3 -76 -43 c-62 -35 -76 -48 -76
-68 0 -24 1 -24 100 -24 81 0 100 3 100 15 0 11 -17 15 -72 17 l-73 3 70 40
c61 36 70 45 73 73 l3 32 -100 0 c-94 0 -101 -1 -101 -20z"/>
<path d="M2094 2000 c-32 -13 -54 -50 -54 -91 0 -62 7 -69 61 -69 l49 0 0 40
c0 29 -4 40 -15 40 -9 0 -15 -9 -15 -21 0 -28 -44 -23 -48 6 -5 35 22 60 66
60 54 0 72 -18 72 -71 0 -52 25 -62 35 -14 19 89 -64 155 -151 120z"/>
<path d="M2040 1740 c0 -46 3 -60 14 -60 10 0 16 13 18 38 l3 37 83 3 c74 3
82 5 82 22 0 19 -7 20 -100 20 l-100 0 0 -60z"/>
<path d="M2040 1651 c0 -14 9 -25 25 -31 21 -8 25 -16 25 -49 0 -33 -4 -40
-25 -45 -16 -4 -25 -13 -25 -26 0 -26 1 -26 111 14 81 29 94 37 97 58 3 23 -4
28 -85 56 -48 17 -96 34 -105 37 -14 6 -18 2 -18 -14z m145 -67 l30 -7 -30
-13 c-48 -21 -65 -18 -65 12 0 19 4 24 18 20 9 -3 31 -8 47 -12z"/>
</g>
</svg>
