<?xml version="1.0" encoding="UTF-8"?>
<svg xmlns="http://www.w3.org/2000/svg" xmlns:xlink="http://www.w3.org/1999/xlink" width="500px" height="333px" viewBox="0 0 499 333" version="1.1">
<defs>
<linearGradient id="linear0" gradientUnits="userSpaceOnUse" x1="671.825989" y1="189.076996" x2="671.796021" y2="154.507004" gradientTransform="matrix(0.554444,0,0,0.555,0,0)">
<stop offset="0" style="stop-color:rgb(100%,100%,100%);stop-opacity:1;"/>
<stop offset="1" style="stop-color:rgb(93.333333%,93.333333%,93.333333%);stop-opacity:1;"/>
</linearGradient>
<linearGradient id="linear1" gradientUnits="userSpaceOnUse" x1="639.377014" y1="218.190002" x2="639.33197" y2="183.621002" gradientTransform="matrix(0.554444,0,0,0.555,0,0)">
<stop offset="0" style="stop-color:rgb(100%,100%,100%);stop-opacity:1;"/>
<stop offset="1" style="stop-color:rgb(93.333333%,93.333333%,93.333333%);stop-opacity:1;"/>
</linearGradient>
<linearGradient id="linear2" gradientUnits="userSpaceOnUse" x1="299.104004" y1="396.326996" x2="298.722992" y2="311.799988" gradientTransform="matrix(0.554444,0,0,0.555,0,0)">
<stop offset="0" style="stop-color:rgb(100%,100%,100%);stop-opacity:1;"/>
<stop offset="1" style="stop-color:rgb(93.333333%,93.333333%,93.333333%);stop-opacity:1;"/>
</linearGradient>
<linearGradient id="linear3" gradientUnits="userSpaceOnUse" x1="299.104004" y1="475.235992" x2="298.722992" y2="390.708008" gradientTransform="matrix(0.554444,0,0,0.555,0,0)">
<stop offset="0" style="stop-color:rgb(100%,100%,100%);stop-opacity:1;"/>
<stop offset="1" style="stop-color:rgb(93.333333%,93.333333%,93.333333%);stop-opacity:1;"/>
</linearGradient>
<linearGradient id="linear4" gradientUnits="userSpaceOnUse" x1="282.165009" y1="435.781006" x2="281.536011" y2="351.256989" gradientTransform="matrix(0.554444,0,0,0.555,0,0)">
<stop offset="0" style="stop-color:rgb(100%,100%,100%);stop-opacity:1;"/>
<stop offset="1" style="stop-color:rgb(93.333333%,93.333333%,93.333333%);stop-opacity:1;"/>
</linearGradient>
<linearGradient id="linear5" gradientUnits="userSpaceOnUse" x1="348.889008" y1="435.781006" x2="348.26001" y2="351.256989" gradientTransform="matrix(0.554444,0,0,0.555,0,0)">
<stop offset="0" style="stop-color:rgb(100%,100%,100%);stop-opacity:1;"/>
<stop offset="1" style="stop-color:rgb(93.333333%,93.333333%,93.333333%);stop-opacity:1;"/>
</linearGradient>
<linearGradient id="linear6" gradientUnits="userSpaceOnUse" x1="415.614014" y1="435.781006" x2="414.984985" y2="351.256989" gradientTransform="matrix(0.554444,0,0,0.555,0,0)">
<stop offset="0" style="stop-color:rgb(100%,100%,100%);stop-opacity:1;"/>
<stop offset="1" style="stop-color:rgb(93.333333%,93.333333%,93.333333%);stop-opacity:1;"/>
</linearGradient>
<linearGradient id="linear7" gradientUnits="userSpaceOnUse" x1="400.061005" y1="396.326996" x2="399.679993" y2="311.799988" gradientTransform="matrix(0.554444,0,0,0.555,0,0)">
<stop offset="0" style="stop-color:rgb(100%,100%,100%);stop-opacity:1;"/>
<stop offset="1" style="stop-color:rgb(93.333333%,93.333333%,93.333333%);stop-opacity:1;"/>
</linearGradient>
<linearGradient id="linear8" gradientUnits="userSpaceOnUse" x1="400.061005" y1="475.235992" x2="399.679993" y2="390.708008" gradientTransform="matrix(0.554444,0,0,0.555,0,0)">
<stop offset="0" style="stop-color:rgb(100%,100%,100%);stop-opacity:1;"/>
<stop offset="1" style="stop-color:rgb(93.333333%,93.333333%,93.333333%);stop-opacity:1;"/>
</linearGradient>
<linearGradient id="linear9" gradientUnits="userSpaceOnUse" x1="516.018005" y1="478.638" x2="512.429016" y2="170.585999" gradientTransform="matrix(0.554444,0,0,0.555,0,0)">
<stop offset="0" style="stop-color:rgb(100%,100%,100%);stop-opacity:1;"/>
<stop offset="1" style="stop-color:rgb(93.333333%,93.333333%,93.333333%);stop-opacity:1;"/>
</linearGradient>
<linearGradient id="linear10" gradientUnits="userSpaceOnUse" x1="624.190002" y1="348.94101" x2="623.809021" y2="264.414001" gradientTransform="matrix(0.554444,0,0,0.555,0,0)">
<stop offset="0" style="stop-color:rgb(100%,100%,100%);stop-opacity:1;"/>
<stop offset="1" style="stop-color:rgb(93.333333%,93.333333%,93.333333%);stop-opacity:1;"/>
</linearGradient>
<linearGradient id="linear11" gradientUnits="userSpaceOnUse" x1="624.190002" y1="427.850006" x2="623.809021" y2="343.322998" gradientTransform="matrix(0.554444,0,0,0.555,0,0)">
<stop offset="0" style="stop-color:rgb(100%,100%,100%);stop-opacity:1;"/>
<stop offset="1" style="stop-color:rgb(93.333333%,93.333333%,93.333333%);stop-opacity:1;"/>
</linearGradient>
<linearGradient id="linear12" gradientUnits="userSpaceOnUse" x1="607.252014" y1="388.395996" x2="606.622009" y2="303.871002" gradientTransform="matrix(0.554444,0,0,0.555,0,0)">
<stop offset="0" style="stop-color:rgb(100%,100%,100%);stop-opacity:1;"/>
<stop offset="1" style="stop-color:rgb(93.333333%,93.333333%,93.333333%);stop-opacity:1;"/>
</linearGradient>
<linearGradient id="linear13" gradientUnits="userSpaceOnUse" x1="673.976013" y1="388.395996" x2="673.346985" y2="303.871002" gradientTransform="matrix(0.554444,0,0,0.555,0,0)">
<stop offset="0" style="stop-color:rgb(100%,100%,100%);stop-opacity:1;"/>
<stop offset="1" style="stop-color:rgb(93.333333%,93.333333%,93.333333%);stop-opacity:1;"/>
</linearGradient>
<linearGradient id="linear14" gradientUnits="userSpaceOnUse" x1="740.700012" y1="388.395996" x2="740.070984" y2="303.871002" gradientTransform="matrix(0.554444,0,0,0.555,0,0)">
<stop offset="0" style="stop-color:rgb(100%,100%,100%);stop-opacity:1;"/>
<stop offset="1" style="stop-color:rgb(93.333333%,93.333333%,93.333333%);stop-opacity:1;"/>
</linearGradient>
<linearGradient id="linear15" gradientUnits="userSpaceOnUse" x1="725.14801" y1="348.94101" x2="724.765991" y2="264.414001" gradientTransform="matrix(0.554444,0,0,0.555,0,0)">
<stop offset="0" style="stop-color:rgb(100%,100%,100%);stop-opacity:1;"/>
<stop offset="1" style="stop-color:rgb(93.333333%,93.333333%,93.333333%);stop-opacity:1;"/>
</linearGradient>
<linearGradient id="linear16" gradientUnits="userSpaceOnUse" x1="725.14801" y1="427.850006" x2="724.765991" y2="343.322998" gradientTransform="matrix(0.554444,0,0,0.555,0,0)">
<stop offset="0" style="stop-color:rgb(100%,100%,100%);stop-opacity:1;"/>
<stop offset="1" style="stop-color:rgb(93.333333%,93.333333%,93.333333%);stop-opacity:1;"/>
</linearGradient>
<linearGradient id="linear17" gradientUnits="userSpaceOnUse" x1="322.246002" y1="204.580002" x2="321.86499" y2="120.053001" gradientTransform="matrix(0.554444,0,0,0.555,0,0)">
<stop offset="0" style="stop-color:rgb(100%,100%,100%);stop-opacity:1;"/>
<stop offset="1" style="stop-color:rgb(93.333333%,93.333333%,93.333333%);stop-opacity:1;"/>
</linearGradient>
<linearGradient id="linear18" gradientUnits="userSpaceOnUse" x1="322.246002" y1="283.489014" x2="321.86499" y2="198.960999" gradientTransform="matrix(0.554444,0,0,0.555,0,0)">
<stop offset="0" style="stop-color:rgb(100%,100%,100%);stop-opacity:1;"/>
<stop offset="1" style="stop-color:rgb(93.333333%,93.333333%,93.333333%);stop-opacity:1;"/>
</linearGradient>
<linearGradient id="linear19" gradientUnits="userSpaceOnUse" x1="305.307007" y1="244.033997" x2="304.678009" y2="159.509995" gradientTransform="matrix(0.554444,0,0,0.555,0,0)">
<stop offset="0" style="stop-color:rgb(100%,100%,100%);stop-opacity:1;"/>
<stop offset="1" style="stop-color:rgb(93.333333%,93.333333%,93.333333%);stop-opacity:1;"/>
</linearGradient>
<linearGradient id="linear20" gradientUnits="userSpaceOnUse" x1="372.032013" y1="244.033997" x2="371.402008" y2="159.509995" gradientTransform="matrix(0.554444,0,0,0.555,0,0)">
<stop offset="0" style="stop-color:rgb(100%,100%,100%);stop-opacity:1;"/>
<stop offset="1" style="stop-color:rgb(93.333333%,93.333333%,93.333333%);stop-opacity:1;"/>
</linearGradient>
<linearGradient id="linear21" gradientUnits="userSpaceOnUse" x1="438.756012" y1="244.033997" x2="438.127014" y2="159.509995" gradientTransform="matrix(0.554444,0,0,0.555,0,0)">
<stop offset="0" style="stop-color:rgb(100%,100%,100%);stop-opacity:1;"/>
<stop offset="1" style="stop-color:rgb(93.333333%,93.333333%,93.333333%);stop-opacity:1;"/>
</linearGradient>
<linearGradient id="linear22" gradientUnits="userSpaceOnUse" x1="423.203003" y1="204.580002" x2="422.821991" y2="120.053001" gradientTransform="matrix(0.554444,0,0,0.555,0,0)">
<stop offset="0" style="stop-color:rgb(100%,100%,100%);stop-opacity:1;"/>
<stop offset="1" style="stop-color:rgb(93.333333%,93.333333%,93.333333%);stop-opacity:1;"/>
</linearGradient>
<linearGradient id="linear23" gradientUnits="userSpaceOnUse" x1="423.203003" y1="283.489014" x2="422.821991" y2="198.960999" gradientTransform="matrix(0.554444,0,0,0.555,0,0)">
<stop offset="0" style="stop-color:rgb(100%,100%,100%);stop-opacity:1;"/>
<stop offset="1" style="stop-color:rgb(93.333333%,93.333333%,93.333333%);stop-opacity:1;"/>
</linearGradient>
</defs>
<g id="surface1">
<path style="fill-rule:nonzero;fill:rgb(100%,100%,100%);fill-opacity:1;stroke-width:2.321;stroke-linecap:butt;stroke-linejoin:miter;stroke:rgb(88.235295%,89.411765%,89.803922%);stroke-opacity:1;stroke-miterlimit:4;" d="M 519.600921 135.740428 L 763.00335 135.740428 C 775.184744 135.740428 785.055267 145.608108 785.055267 157.784347 L 785.055267 222.515484 C 785.055267 234.691723 775.184744 244.559403 763.00335 244.559403 L 519.600921 244.559403 C 507.419527 244.559403 497.549004 234.691723 497.549004 222.515484 L 497.549004 157.784347 C 497.549004 145.608108 507.419527 135.740428 519.600921 135.740428 Z M 519.600921 135.740428 " transform="matrix(0.554444,0,0,0.555,0,0)"/>
<path style=" stroke:none;fill-rule:nonzero;fill:url(#linear0);" d="M 325.039062 93.632812 L 415.765625 93.632812 C 417.761719 93.632812 419.382812 95.253906 419.382812 97.253906 C 419.382812 99.253906 417.761719 100.875 415.765625 100.875 L 325.039062 100.875 C 323.039062 100.875 321.417969 99.253906 321.417969 97.253906 C 321.417969 95.253906 323.039062 93.632812 325.039062 93.632812 Z M 325.039062 93.632812 "/>
<path style=" stroke:none;fill-rule:nonzero;fill:url(#linear1);" d="M 325.039062 109.792969 L 381.253906 109.792969 C 383.253906 109.792969 384.875 111.414062 384.875 113.414062 C 384.875 115.414062 383.253906 117.035156 381.253906 117.035156 L 325.039062 117.035156 C 323.039062 117.035156 321.417969 115.414062 321.417969 113.414062 C 321.417969 111.414062 323.039062 109.792969 325.039062 109.792969 Z M 325.039062 109.792969 "/>
<path style=" stroke:none;fill-rule:evenodd;fill:rgb(10.196079%,44.705883%,62.352943%);fill-opacity:1;" d="M 300.6875 121.082031 C 292.171875 121.082031 285.265625 114.074219 285.265625 105.425781 C 285.265625 96.78125 292.171875 89.769531 300.6875 89.769531 C 309.207031 89.769531 316.109375 96.78125 316.109375 105.425781 C 316.109375 114.074219 309.207031 121.082031 300.6875 121.082031 Z M 300.6875 121.082031 "/>
<path style="fill:none;stroke-width:4.381;stroke-linecap:round;stroke-linejoin:round;stroke:rgb(100%,100%,100%);stroke-opacity:1;stroke-miterlimit:4;" d="M 552.115168 185.254786 L 540.36354 197.789977 L 533.311154 190.273086 " transform="matrix(0.554444,0,0,0.555,0,0)"/>
<path style="fill-rule:nonzero;fill:rgb(100%,100%,100%);fill-opacity:1;stroke-width:2.321;stroke-linecap:butt;stroke-linejoin:miter;stroke:rgb(88.235295%,89.411765%,89.803922%);stroke-opacity:1;stroke-miterlimit:4;" d="M 459.483029 324.443975 L 459.483029 455.736205 C 459.483029 465.322354 451.704972 473.078547 442.116264 473.078547 L 132.522858 473.078547 C 122.93415 473.078547 115.163139 465.322354 115.163139 455.736205 L 115.163139 324.443975 C 115.163139 314.850788 122.93415 307.066441 132.522858 307.066441 L 442.116264 307.066441 C 451.704972 307.066441 459.483029 314.850788 459.483029 324.443975 Z M 459.483029 324.443975 " transform="matrix(0.554444,0,0,0.555,0,0)"/>
<path style=" stroke:none;fill-rule:nonzero;fill:rgb(10.196079%,44.705883%,62.352943%);fill-opacity:1;" d="M 129.769531 255.75 L 79.203125 255.75 C 75.375 255.75 72.261719 252.632812 72.261719 248.796875 L 72.261719 198.152344 C 72.261719 194.316406 75.375 191.199219 79.203125 191.199219 L 129.769531 191.199219 C 133.597656 191.199219 136.710938 194.316406 136.710938 198.152344 L 136.710938 248.796875 C 136.710938 252.644531 133.597656 255.75 129.769531 255.75 Z M 129.769531 255.75 "/>
<path style="fill-rule:nonzero;fill:rgb(100%,100%,100%);fill-opacity:1;stroke-width:2.321;stroke-linecap:butt;stroke-linejoin:miter;stroke:rgb(88.235295%,89.411765%,89.803922%);stroke-opacity:1;stroke-miterlimit:4;" d="M 459.483029 324.443975 C 459.483029 326.85107 457.531469 328.800676 455.121963 328.800676 L 119.517159 328.800676 C 117.107653 328.800676 115.163139 326.85107 115.163139 324.443975 C 115.163139 314.850788 122.93415 307.066441 132.522858 307.066441 L 442.116264 307.066441 C 451.704972 307.066441 459.483029 314.850788 459.483029 324.443975 Z M 459.483029 324.443975 " transform="matrix(0.554444,0,0,0.555,0,0)"/>
<path style="fill-rule:nonzero;fill:rgb(88.235295%,89.411765%,89.803922%);fill-opacity:1;stroke-width:1.583;stroke-linecap:butt;stroke-linejoin:miter;stroke:rgb(88.235295%,89.411765%,89.803922%);stroke-opacity:1;stroke-miterlimit:4;" d="M 137.532095 318.362894 C 137.52505 320.298423 135.953939 321.867962 134.01647 321.875 C 132.079002 321.867962 130.507891 320.298423 130.507891 318.362894 C 130.507891 316.427365 132.079002 314.850788 134.01647 314.84375 C 135.960984 314.871903 137.532095 316.434403 137.532095 318.362894 Z M 151.094376 318.362894 C 151.094376 320.298423 149.523265 321.867962 147.585797 321.875 C 145.648328 321.867962 144.077217 320.298423 144.077217 318.362894 C 144.077217 316.427365 145.648328 314.850788 147.578751 314.84375 C 149.530311 314.871903 151.094376 316.434403 151.094376 318.362894 Z M 164.663702 318.362894 C 164.663702 320.298423 163.092591 321.867962 161.155123 321.875 C 159.217654 321.867962 157.646543 320.298423 157.639498 318.362894 C 157.646543 316.420327 159.210609 314.850788 161.148077 314.84375 C 163.120773 314.871903 164.663702 316.434403 164.663702 318.362894 Z M 164.663702 318.362894 " transform="matrix(0.554444,0,0,0.555,0,0)"/>
<path style=" stroke:none;fill-rule:nonzero;fill:url(#linear2);" d="M 150.867188 192.320312 L 178.855469 192.320312 C 183.742188 192.320312 187.703125 196.285156 187.703125 201.175781 C 187.703125 206.066406 183.742188 210.03125 178.855469 210.03125 L 150.867188 210.03125 C 145.984375 210.03125 142.023438 206.066406 142.023438 201.175781 C 142.023438 196.285156 145.984375 192.320312 150.867188 192.320312 Z M 150.867188 192.320312 "/>
<path style=" stroke:none;fill-rule:nonzero;fill:url(#linear3);" d="M 150.867188 236.113281 L 178.855469 236.113281 C 183.742188 236.113281 187.703125 240.078125 187.703125 244.96875 C 187.703125 249.859375 183.742188 253.824219 178.855469 253.824219 L 150.867188 253.824219 C 145.984375 253.824219 142.023438 249.859375 142.023438 244.96875 C 142.023438 240.078125 145.984375 236.113281 150.867188 236.113281 Z M 150.867188 236.113281 "/>
<path style=" stroke:none;fill-rule:nonzero;fill:url(#linear4);" d="M 150.867188 214.21875 L 160.839844 214.21875 C 165.726562 214.21875 169.6875 218.183594 169.6875 223.074219 C 169.6875 227.964844 165.726562 231.929688 160.839844 231.929688 L 150.867188 231.929688 C 145.984375 231.929688 142.023438 227.964844 142.023438 223.074219 C 142.023438 218.183594 145.984375 214.21875 150.867188 214.21875 Z M 150.867188 214.21875 "/>
<path style=" stroke:none;fill-rule:nonzero;fill:url(#linear5);" d="M 187.863281 214.21875 L 197.835938 214.21875 C 202.722656 214.21875 206.683594 218.183594 206.683594 223.074219 C 206.683594 227.964844 202.722656 231.929688 197.835938 231.929688 L 187.863281 231.929688 C 182.976562 231.929688 179.015625 227.964844 179.015625 223.074219 C 179.015625 218.183594 182.976562 214.21875 187.863281 214.21875 Z M 187.863281 214.21875 "/>
<path style=" stroke:none;fill-rule:nonzero;fill:url(#linear6);" d="M 224.859375 214.21875 L 234.832031 214.21875 C 239.71875 214.21875 243.679688 218.183594 243.679688 223.074219 C 243.679688 227.964844 239.71875 231.929688 234.832031 231.929688 L 224.859375 231.929688 C 219.972656 231.929688 216.011719 227.964844 216.011719 223.074219 C 216.011719 218.183594 219.972656 214.21875 224.859375 214.21875 Z M 224.859375 214.21875 "/>
<path style=" stroke:none;fill-rule:nonzero;fill:url(#linear7);" d="M 206.84375 192.320312 L 234.832031 192.320312 C 239.71875 192.320312 243.679688 196.285156 243.679688 201.175781 C 243.679688 206.066406 239.71875 210.03125 234.832031 210.03125 L 206.84375 210.03125 C 201.957031 210.03125 197.996094 206.066406 197.996094 201.175781 C 197.996094 196.285156 201.957031 192.320312 206.84375 192.320312 Z M 206.84375 192.320312 "/>
<path style=" stroke:none;fill-rule:nonzero;fill:url(#linear8);" d="M 206.84375 236.113281 L 234.832031 236.113281 C 239.71875 236.113281 243.679688 240.078125 243.679688 244.96875 C 243.679688 249.859375 239.71875 253.824219 234.832031 253.824219 L 206.84375 253.824219 C 201.957031 253.824219 197.996094 249.859375 197.996094 244.96875 C 197.996094 240.078125 201.957031 236.113281 206.84375 236.113281 Z M 206.84375 236.113281 "/>
<path style="fill:none;stroke-width:9.389;stroke-linecap:round;stroke-linejoin:round;stroke:rgb(100%,100%,100%);stroke-opacity:1;stroke-miterlimit:4;" d="M 168.679547 415.540541 L 155.50476 402.364865 L 168.679547 389.189189 M 208.210953 389.189189 L 221.38574 402.364865 L 208.210953 415.540541 M 193.556645 382.60839 L 182.580004 422.135417 " transform="matrix(0.554444,0,0,0.555,0,0)"/>
<path style="fill-rule:nonzero;fill:rgb(100%,100%,100%);fill-opacity:1;stroke-width:2.321;stroke-linecap:butt;stroke-linejoin:miter;stroke:rgb(88.235295%,89.411765%,89.803922%);stroke-opacity:1;stroke-miterlimit:4;" d="M 784.569138 277.05518 L 784.569138 408.34741 C 784.569138 417.940597 776.791082 425.696791 767.209419 425.696791 L 457.608968 425.696791 C 448.020259 425.696791 440.249248 417.940597 440.249248 408.34741 L 440.249248 277.05518 C 440.249248 267.461993 448.027305 259.684685 457.608968 259.684685 L 767.209419 259.684685 C 776.791082 259.684685 784.569138 267.461993 784.569138 277.05518 Z M 784.569138 277.05518 " transform="matrix(0.554444,0,0,0.555,0,0)"/>
<path style=" stroke:none;fill-rule:nonzero;fill:url(#linear9);" d="M 310.011719 229.453125 L 259.445312 229.453125 C 255.617188 229.453125 252.503906 226.332031 252.503906 222.5 L 252.503906 171.851562 C 252.503906 168.015625 255.617188 164.898438 259.445312 164.898438 L 310.011719 164.898438 C 313.839844 164.898438 316.953125 168.015625 316.953125 171.851562 L 316.953125 222.5 C 316.953125 226.347656 313.839844 229.453125 310.011719 229.453125 Z M 310.011719 229.453125 "/>
<path style="fill-rule:nonzero;fill:rgb(100%,100%,100%);fill-opacity:1;stroke-width:2.321;stroke-linecap:butt;stroke-linejoin:miter;stroke:rgb(88.235295%,89.411765%,89.803922%);stroke-opacity:1;stroke-miterlimit:4;" d="M 784.569138 277.05518 C 784.569138 279.462275 782.617579 281.411881 780.215118 281.411881 L 444.603269 281.411881 C 442.200808 281.411881 440.249248 279.462275 440.249248 277.05518 C 440.249248 267.461993 448.027305 259.684685 457.608968 259.684685 L 767.209419 259.684685 C 776.791082 259.684685 784.569138 267.461993 784.569138 277.05518 Z M 784.569138 277.05518 " transform="matrix(0.554444,0,0,0.555,0,0)"/>
<path style="fill-rule:nonzero;fill:rgb(88.235295%,89.411765%,89.803922%);fill-opacity:1;stroke-width:1.583;stroke-linecap:butt;stroke-linejoin:miter;stroke:rgb(88.235295%,89.411765%,89.803922%);stroke-opacity:1;stroke-miterlimit:4;" d="M 462.618205 270.974099 C 462.61116 272.909628 461.040049 274.486205 459.10258 274.486205 C 457.165111 274.486205 455.601046 272.909628 455.594001 270.974099 C 455.594001 269.03857 457.165111 267.469032 459.10258 267.461993 C 461.047094 267.483108 462.618205 269.045608 462.618205 270.974099 Z M 476.180486 270.974099 C 476.180486 272.909628 474.609375 274.486205 472.671906 274.486205 C 470.734438 274.486205 469.163327 272.909628 469.163327 270.974099 C 469.163327 269.03857 470.734438 267.469032 472.671906 267.461993 C 474.61642 267.483108 476.180486 269.045608 476.180486 270.974099 Z M 489.749812 270.974099 C 489.749812 272.909628 488.178701 274.486205 486.241232 274.486205 C 484.303764 274.479167 482.732653 272.909628 482.732653 270.974099 C 482.732653 269.03857 484.303764 267.469032 486.234187 267.461993 C 488.206883 267.483108 489.749812 269.045608 489.749812 270.974099 Z M 489.749812 270.974099 " transform="matrix(0.554444,0,0,0.555,0,0)"/>
<path style=" stroke:none;fill-rule:nonzero;fill:url(#linear10);" d="M 331.113281 166.023438 L 359.097656 166.023438 C 363.984375 166.023438 367.945312 169.988281 367.945312 174.878906 C 367.945312 179.769531 363.984375 183.734375 359.097656 183.734375 L 331.113281 183.734375 C 326.226562 183.734375 322.265625 179.769531 322.265625 174.878906 C 322.265625 169.988281 326.226562 166.023438 331.113281 166.023438 Z M 331.113281 166.023438 "/>
<path style=" stroke:none;fill-rule:nonzero;fill:url(#linear11);" d="M 331.113281 209.816406 L 359.097656 209.816406 C 363.984375 209.816406 367.945312 213.78125 367.945312 218.671875 C 367.945312 223.5625 363.984375 227.527344 359.097656 227.527344 L 331.113281 227.527344 C 326.226562 227.527344 322.265625 223.5625 322.265625 218.671875 C 322.265625 213.78125 326.226562 209.816406 331.113281 209.816406 Z M 331.113281 209.816406 "/>
<path style=" stroke:none;fill-rule:nonzero;fill:url(#linear12);" d="M 331.113281 187.917969 L 341.082031 187.917969 C 345.96875 187.917969 349.929688 191.882812 349.929688 196.773438 C 349.929688 201.664062 345.96875 205.628906 341.082031 205.628906 L 331.113281 205.628906 C 326.226562 205.628906 322.265625 201.664062 322.265625 196.773438 C 322.265625 191.882812 326.226562 187.917969 331.113281 187.917969 Z M 331.113281 187.917969 "/>
<path style=" stroke:none;fill-rule:nonzero;fill:url(#linear13);" d="M 368.105469 187.917969 L 378.078125 187.917969 C 382.964844 187.917969 386.925781 191.882812 386.925781 196.773438 C 386.925781 201.664062 382.964844 205.628906 378.078125 205.628906 L 368.105469 205.628906 C 363.21875 205.628906 359.257812 201.664062 359.257812 196.773438 C 359.257812 191.882812 363.21875 187.917969 368.105469 187.917969 Z M 368.105469 187.917969 "/>
<path style=" stroke:none;fill-rule:nonzero;fill:url(#linear14);" d="M 405.101562 187.917969 L 415.074219 187.917969 C 419.960938 187.917969 423.917969 191.882812 423.917969 196.773438 C 423.917969 201.664062 419.960938 205.628906 415.074219 205.628906 L 405.101562 205.628906 C 400.214844 205.628906 396.253906 201.664062 396.253906 196.773438 C 396.253906 191.882812 400.214844 187.917969 405.101562 187.917969 Z M 405.101562 187.917969 "/>
<path style=" stroke:none;fill-rule:nonzero;fill:url(#linear15);" d="M 387.085938 166.023438 L 415.074219 166.023438 C 419.960938 166.023438 423.921875 169.988281 423.921875 174.878906 C 423.921875 179.769531 419.960938 183.734375 415.074219 183.734375 L 387.085938 183.734375 C 382.199219 183.734375 378.238281 179.769531 378.238281 174.878906 C 378.238281 169.988281 382.199219 166.023438 387.085938 166.023438 Z M 387.085938 166.023438 "/>
<path style=" stroke:none;fill-rule:nonzero;fill:url(#linear16);" d="M 387.085938 209.816406 L 415.074219 209.816406 C 419.960938 209.816406 423.921875 213.78125 423.921875 218.671875 C 423.921875 223.5625 419.960938 227.527344 415.074219 227.527344 L 387.085938 227.527344 C 382.199219 227.527344 378.238281 223.5625 378.238281 218.671875 C 378.238281 213.78125 382.199219 209.816406 387.085938 209.816406 Z M 387.085938 209.816406 "/>
<path style="fill:none;stroke-width:9.389;stroke-linecap:round;stroke-linejoin:round;stroke:rgb(100%,100%,100%);stroke-opacity:1;stroke-miterlimit:4;" d="M 493.765656 368.158784 L 480.590869 354.983108 L 493.765656 341.807432 M 533.297063 341.807432 L 546.47185 354.983108 L 533.297063 368.158784 M 518.642754 335.219595 L 507.666113 374.746622 " transform="matrix(0.554444,0,0,0.555,0,0)"/>
<path style="fill-rule:nonzero;fill:rgb(100%,100%,100%);fill-opacity:1;stroke-width:2.321;stroke-linecap:butt;stroke-linejoin:miter;stroke:rgb(88.235295%,89.411765%,89.803922%);stroke-opacity:1;stroke-miterlimit:4;" d="M 482.619927 132.699887 L 482.619927 263.985079 C 482.619927 273.578266 474.848917 281.334459 465.260208 281.334459 L 155.666802 281.334459 C 146.078094 281.334459 138.300038 273.578266 138.300038 263.985079 L 138.300038 132.699887 C 138.300038 123.099662 146.078094 115.322354 155.666802 115.322354 L 465.260208 115.322354 C 474.848917 115.322354 482.619927 123.099662 482.619927 132.699887 Z M 482.619927 132.699887 " transform="matrix(0.554444,0,0,0.555,0,0)"/>
<path style=" stroke:none;fill-rule:nonzero;fill:rgb(10.196079%,44.705883%,62.352943%);fill-opacity:1;" d="M 142.601562 149.332031 L 92.035156 149.332031 C 88.207031 149.332031 85.09375 146.210938 85.09375 142.378906 L 85.09375 91.730469 C 85.09375 87.898438 88.207031 84.777344 92.035156 84.777344 L 142.601562 84.777344 C 146.429688 84.777344 149.542969 87.898438 149.542969 91.730469 L 149.542969 142.378906 C 149.542969 146.226562 146.429688 149.332031 142.601562 149.332031 Z M 142.601562 149.332031 "/>
<path style="fill-rule:nonzero;fill:rgb(100%,100%,100%);fill-opacity:1;stroke-width:2.321;stroke-linecap:butt;stroke-linejoin:miter;stroke:rgb(88.235295%,89.411765%,89.803922%);stroke-opacity:1;stroke-miterlimit:4;" d="M 482.619927 132.699887 C 482.619927 135.099944 480.675413 137.04955 478.265907 137.04955 L 142.661103 137.04955 C 140.251597 137.04955 138.300038 135.099944 138.300038 132.699887 C 138.300038 123.099662 146.078094 115.322354 155.666802 115.322354 L 465.260208 115.322354 C 474.848917 115.322354 482.619927 123.099662 482.619927 132.699887 Z M 482.619927 132.699887 " transform="matrix(0.554444,0,0,0.555,0,0)"/>
<path style="fill-rule:nonzero;fill:rgb(88.235295%,89.411765%,89.803922%);fill-opacity:1;stroke-width:1.583;stroke-linecap:butt;stroke-linejoin:miter;stroke:rgb(88.235295%,89.411765%,89.803922%);stroke-opacity:1;stroke-miterlimit:4;" d="M 160.668994 126.611768 C 160.668994 128.554336 159.097883 130.123874 157.160415 130.123874 C 155.222946 130.123874 153.651835 128.554336 153.651835 126.611768 C 153.651835 124.676239 155.222946 123.1067 157.153369 123.099662 C 159.097883 123.120777 160.668994 124.690315 160.668994 126.611768 Z M 174.23832 126.611768 C 174.23832 128.554336 172.667209 130.123874 170.729741 130.123874 C 168.792272 130.123874 167.221161 128.554336 167.221161 126.611768 C 167.221161 124.676239 168.785227 123.1067 170.722695 123.099662 C 172.667209 123.120777 174.23832 124.690315 174.23832 126.611768 Z M 187.807647 126.611768 C 187.800601 128.554336 186.236536 130.123874 184.299067 130.123874 C 182.361598 130.123874 180.790487 128.554336 180.783442 126.611768 C 180.790487 124.676239 182.354553 123.1067 184.292022 123.099662 C 186.257672 123.120777 187.807647 124.683277 187.807647 126.611768 Z M 187.807647 126.611768 " transform="matrix(0.554444,0,0,0.555,0,0)"/>
<path style=" stroke:none;fill-rule:nonzero;fill:url(#linear17);" d="M 163.699219 85.902344 L 191.6875 85.902344 C 196.574219 85.902344 200.535156 89.867188 200.535156 94.757812 C 200.535156 99.648438 196.574219 103.613281 191.6875 103.613281 L 163.699219 103.613281 C 158.8125 103.613281 154.851562 99.648438 154.851562 94.757812 C 154.851562 89.867188 158.8125 85.902344 163.699219 85.902344 Z M 163.699219 85.902344 "/>
<path style=" stroke:none;fill-rule:nonzero;fill:url(#linear18);" d="M 163.699219 129.695312 L 191.6875 129.695312 C 196.574219 129.695312 200.535156 133.660156 200.535156 138.550781 C 200.535156 143.441406 196.574219 147.40625 191.6875 147.40625 L 163.699219 147.40625 C 158.8125 147.40625 154.851562 143.441406 154.851562 138.550781 C 154.851562 133.660156 158.8125 129.695312 163.699219 129.695312 Z M 163.699219 129.695312 "/>
<path style=" stroke:none;fill-rule:nonzero;fill:url(#linear19);" d="M 163.699219 107.796875 L 173.671875 107.796875 C 178.558594 107.796875 182.519531 111.761719 182.519531 116.652344 C 182.519531 121.542969 178.558594 125.507812 173.671875 125.507812 L 163.699219 125.507812 C 158.8125 125.507812 154.851562 121.542969 154.851562 116.652344 C 154.851562 111.761719 158.8125 107.796875 163.699219 107.796875 Z M 163.699219 107.796875 "/>
<path style=" stroke:none;fill-rule:nonzero;fill:url(#linear20);" d="M 200.695312 107.796875 L 210.667969 107.796875 C 215.554688 107.796875 219.515625 111.761719 219.515625 116.652344 C 219.515625 121.542969 215.554688 125.507812 210.667969 125.507812 L 200.695312 125.507812 C 195.808594 125.507812 191.847656 121.542969 191.847656 116.652344 C 191.847656 111.761719 195.808594 107.796875 200.695312 107.796875 Z M 200.695312 107.796875 "/>
<path style=" stroke:none;fill-rule:nonzero;fill:url(#linear21);" d="M 237.691406 107.796875 L 247.660156 107.796875 C 252.546875 107.796875 256.507812 111.761719 256.507812 116.652344 C 256.507812 121.542969 252.546875 125.507812 247.660156 125.507812 L 237.691406 125.507812 C 232.804688 125.507812 228.84375 121.542969 228.84375 116.652344 C 228.84375 111.761719 232.804688 107.796875 237.691406 107.796875 Z M 237.691406 107.796875 "/>
<path style=" stroke:none;fill-rule:nonzero;fill:url(#linear22);" d="M 219.675781 85.902344 L 247.660156 85.902344 C 252.546875 85.902344 256.507812 89.867188 256.507812 94.757812 C 256.507812 99.648438 252.546875 103.613281 247.660156 103.613281 L 219.675781 103.613281 C 214.789062 103.613281 210.828125 99.648438 210.828125 94.757812 C 210.828125 89.867188 214.789062 85.902344 219.675781 85.902344 Z M 219.675781 85.902344 "/>
<path style=" stroke:none;fill-rule:nonzero;fill:url(#linear23);" d="M 219.675781 129.695312 L 247.660156 129.695312 C 252.546875 129.695312 256.507812 133.660156 256.507812 138.550781 C 256.507812 143.441406 252.546875 147.40625 247.660156 147.40625 L 219.675781 147.40625 C 214.789062 147.40625 210.828125 143.441406 210.828125 138.550781 C 210.828125 133.660156 214.789062 129.695312 219.675781 129.695312 Z M 219.675781 129.695312 "/>
<path style="fill:none;stroke-width:9.389;stroke-linecap:round;stroke-linejoin:round;stroke:rgb(100%,100%,100%);stroke-opacity:1;stroke-miterlimit:4;" d="M 191.823491 223.796453 L 178.648704 210.620777 L 191.823491 197.445101 M 231.347852 197.445101 L 244.529684 210.620777 L 231.347852 223.796453 M 216.700589 190.857264 L 205.716903 230.384291 " transform="matrix(0.554444,0,0,0.555,0,0)"/>
<path style=" stroke:none;fill-rule:nonzero;fill:rgb(97.254902%,68.235296%,61.56863%);fill-opacity:1;" d="M 232.25 173.8125 L 239.757812 171.527344 L 272.386719 170.566406 L 279.746094 172.574219 L 278.785156 190.527344 L 262.136719 201.160156 L 245.988281 200.835938 L 235.835938 191.578125 L 233.582031 182.394531 Z M 232.25 173.8125 "/>
<path style=" stroke:none;fill-rule:nonzero;fill:rgb(10.196079%,44.705883%,62.352943%);fill-opacity:1;" d="M 326.460938 202.679688 C 324.097656 197.804688 321.835938 193.890625 319.816406 190.800781 C 315.851562 184.710938 309.789062 180.296875 302.785156 178.390625 L 276.171875 171.171875 C 276.171875 171.171875 274.789062 197.792969 256.484375 197.792969 C 238.179688 197.792969 234.613281 172.832031 234.613281 172.832031 L 203.8125 185.132812 C 202.753906 185.542969 195.609375 188.015625 187.300781 205.859375 C 179.382812 222.847656 175.925781 231.546875 175.925781 231.546875 L 207.65625 240.71875 L 209.632812 269.28125 L 208.957031 285.59375 L 305.265625 285.378906 L 304.726562 266.730469 L 305.125 238.140625 L 306.332031 240.089844 L 338.386719 227.222656 C 338.386719 227.222656 334.257812 218.746094 326.460938 202.679688 Z M 326.460938 202.679688 "/>
<path style=" stroke:none;fill-rule:nonzero;fill:rgb(97.254902%,68.235296%,61.56863%);fill-opacity:1;" d="M 253.375 183.308594 C 261.183594 183.164062 270.058594 167.914062 270.058594 167.914062 L 270.566406 128.738281 C 270.976562 117.457031 263.964844 107.839844 251.324219 107.789062 L 250.152344 107.839844 C 238.390625 108.402344 229.074219 116.929688 228.761719 127.441406 C 228.460938 137.222656 228.285156 148.027344 228.667969 153.246094 C 229.464844 164.050781 241.78125 162.226562 241.78125 162.226562 C 241.804688 162.226562 241.746094 167.671875 241.78125 170.851562 C 241.875 177.992188 250.238281 183.550781 253.375 183.308594 Z M 253.375 183.308594 "/>
<path style=" stroke:none;fill-rule:nonzero;fill:rgb(97.254902%,68.235296%,61.56863%);fill-opacity:1;" d="M 266.664062 130.886719 C 266.878906 130.785156 275.292969 127.972656 275.480469 136.289062 C 275.667969 144.609375 266.863281 143.074219 266.84375 142.835938 C 266.828125 142.597656 266.664062 130.886719 266.664062 130.886719 Z M 178.660156 232.34375 L 165.753906 258.269531 C 164.3125 261.164062 163.636719 264.382812 163.792969 267.617188 C 164.285156 277.679688 172.582031 285.59375 182.648438 285.59375 L 219.960938 285.007812 L 221.277344 266.546875 L 193.113281 259.75 L 203.785156 239.550781 Z M 336.75 227.878906 C 336.75 227.878906 344.753906 251.6875 353.484375 273.324219 C 353.664062 273.757812 353.859375 274.558594 354.015625 275 C 355.984375 280.367188 350.054688 285.59375 344.070312 285.59375 L 293.613281 285.507812 L 293.613281 269.085938 L 325 262.417969 L 313.632812 237.148438 Z M 336.75 227.878906 "/>
<path style=" stroke:none;fill-rule:nonzero;fill:rgb(92.156863%,60.000002%,43.137255%);fill-opacity:1;" d="M 235.621094 268.332031 C 235.628906 268.390625 236.777344 268.027344 238.6875 267.910156 C 240.589844 267.78125 243.285156 267.996094 245.96875 269.144531 C 248.652344 270.292969 250.683594 272.089844 251.898438 273.550781 C 253.132812 275.011719 253.660156 276.101562 253.710938 276.0625 C 253.730469 276.050781 253.613281 275.777344 253.347656 275.304688 C 252.96875 274.640625 252.539062 274.007812 252.0625 273.414062 C 250.867188 271.890625 248.832031 270.027344 246.085938 268.859375 C 243.34375 267.695312 240.589844 267.496094 238.667969 267.695312 C 237.90625 267.757812 237.152344 267.886719 236.414062 268.074219 C 235.894531 268.203125 235.609375 268.3125 235.621094 268.332031 Z M 237.34375 264.359375 C 237.367188 264.4375 238.53125 263.859375 240.539062 263.800781 C 242.539062 263.710938 245.351562 264.320312 247.976562 265.910156 C 250.605469 267.507812 252.574219 269.527344 253.964844 270.980469 C 254.632812 271.6875 255.179688 272.273438 255.609375 272.726562 C 256.003906 273.136719 256.21875 273.363281 256.238281 273.34375 C 256.257812 273.332031 256.0625 273.078125 255.699219 272.648438 C 255.1875 272.03125 254.667969 271.425781 254.132812 270.832031 C 252.769531 269.339844 250.808594 267.273438 248.132812 265.644531 C 245.460938 264.023438 242.570312 263.4375 240.53125 263.582031 C 239.511719 263.644531 238.699219 263.828125 238.160156 264.015625 C 237.882812 264.09375 237.6875 264.191406 237.550781 264.25 C 237.414062 264.308594 237.34375 264.347656 237.34375 264.359375 Z M 237.34375 264.359375 "/>
<path style=" stroke:none;fill-rule:nonzero;fill:rgb(97.254902%,68.235296%,61.56863%);fill-opacity:1;" d="M 304.226562 266.074219 L 296.984375 266.074219 C 296.984375 266.074219 280.636719 260.160156 277.277344 260.730469 C 274.25 261.238281 263.167969 268.605469 260.992188 270.066406 C 260.746094 270.234375 260.570312 270.460938 260.460938 270.734375 C 260.019531 271.933594 260.601562 273.269531 261.785156 273.753906 L 262.011719 273.855469 L 261.914062 274.1875 C 261.78125 274.617188 261.726562 275.0625 261.746094 275.511719 C 261.824219 277.070312 263.921875 277.542969 264.714844 276.199219 L 264.292969 276.941406 C 264.125 277.246094 264.042969 277.589844 264.058594 277.933594 L 264.097656 278.609375 C 264.140625 279.359375 264.636719 280.007812 265.351562 280.238281 C 266.027344 280.464844 266.773438 280.269531 267.253906 279.738281 C 268.652344 278.1875 271.691406 275.089844 273.75 274.746094 C 275.570312 274.441406 278.621094 274.402344 280.460938 274.414062 C 281.394531 274.414062 282.234375 274.992188 282.570312 275.863281 C 281.351562 275.953125 272.859375 280.386719 269.847656 281.976562 C 268.917969 282.464844 268.222656 283.347656 268.105469 284.398438 C 267.996094 285.339844 268.46875 286.332031 270.328125 285.890625 C 274.328125 284.957031 281.511719 281.652344 281.511719 281.652344 C 281.511719 281.652344 285.214844 280.59375 287.617188 282.289062 C 290.996094 284.671875 292.542969 285.546875 295.445312 284.585938 C 298.34375 283.625 300.480469 282.242188 300.480469 282.242188 L 306.195312 281.671875 C 306.214844 281.671875 311.613281 268.15625 304.226562 266.074219 Z M 304.226562 266.074219 "/>
<path style=" stroke:none;fill-rule:nonzero;fill:rgb(92.156863%,60.000002%,43.137255%);fill-opacity:1;" d="M 282.636719 268.839844 C 282.625 268.898438 281.480469 268.539062 279.570312 268.417969 C 277.667969 268.292969 274.972656 268.507812 272.289062 269.65625 C 269.605469 270.804688 267.574219 272.597656 266.359375 274.058594 C 265.125 275.519531 264.597656 276.609375 264.546875 276.570312 C 264.527344 276.5625 264.644531 276.285156 264.910156 275.816406 C 265.289062 275.152344 265.71875 274.519531 266.195312 273.921875 C 267.390625 272.402344 269.429688 270.539062 272.171875 269.371094 C 274.914062 268.203125 277.667969 268.007812 279.589844 268.203125 C 280.550781 268.292969 281.324219 268.449219 281.84375 268.585938 C 282.363281 268.722656 282.648438 268.820312 282.636719 268.839844 Z M 280.910156 264.867188 C 280.894531 264.945312 279.726562 264.367188 277.71875 264.308594 C 275.71875 264.222656 272.90625 264.828125 270.28125 266.417969 C 267.652344 268.015625 265.683594 270.039062 264.292969 271.488281 C 263.625 272.195312 263.078125 272.785156 262.644531 273.234375 C 262.253906 273.648438 262.039062 273.875 262.019531 273.855469 C 262 273.84375 262.195312 273.589844 262.558594 273.15625 C 262.921875 272.714844 263.449219 272.097656 264.125 271.34375 C 265.488281 269.851562 267.449219 267.78125 270.125 266.152344 C 272.796875 264.535156 275.6875 263.945312 277.726562 264.09375 C 278.746094 264.152344 279.558594 264.339844 280.097656 264.523438 C 280.375 264.601562 280.570312 264.703125 280.707031 264.761719 C 280.84375 264.820312 280.910156 264.859375 280.910156 264.867188 Z M 280.910156 264.867188 "/>
<path style=" stroke:none;fill-rule:nonzero;fill:rgb(19.215687%,26.666668%,42.352942%);fill-opacity:1;" d="M 294.425781 286.054688 L 218.394531 286.054688 C 216.234375 286.058594 214.457031 284.351562 214.367188 282.191406 L 212.082031 229.8125 C 211.984375 227.515625 213.816406 225.59375 216.113281 225.59375 L 296.5625 225.59375 C 298.855469 225.59375 300.6875 227.507812 300.597656 229.800781 L 298.464844 282.191406 C 298.375 284.347656 296.589844 286.054688 294.425781 286.054688 Z M 294.425781 286.054688 "/>
<path style=" stroke:none;fill-rule:nonzero;fill:rgb(100%,100%,100%);fill-opacity:1;" d="M 264.019531 256.792969 C 264.019531 261.097656 260.542969 264.578125 256.246094 264.578125 C 251.945312 264.578125 248.46875 261.097656 248.46875 256.792969 C 248.46875 252.492188 251.945312 249.011719 256.246094 249.011719 C 260.542969 249.011719 264.019531 252.507812 264.019531 256.792969 Z M 264.019531 256.792969 "/>
<path style=" stroke:none;fill-rule:nonzero;fill:rgb(97.254902%,68.235296%,61.56863%);fill-opacity:1;" d="M 263.726562 146.042969 L 270.585938 146.042969 L 270.585938 175.46875 L 263.726562 175.46875 Z M 263.726562 146.042969 "/>
<path style=" stroke:none;fill-rule:nonzero;fill:rgb(19.215687%,26.666668%,42.352942%);fill-opacity:1;" d="M 266.417969 119.75 C 265.183594 121.347656 263 121.699219 261.207031 122.011719 C 258.792969 122.4375 257.597656 123.320312 256.34375 125.691406 C 255.550781 127.207031 254.757812 128.867188 253.339844 129.6875 C 252.183594 130.359375 252.226562 128.652344 252.042969 127.328125 C 252.027344 127.210938 252.003906 127.09375 251.972656 126.980469 C 251.691406 125.921875 250.570312 126.105469 250.238281 127.144531 C 249.941406 128.082031 249.296875 128.878906 248.476562 129.320312 C 248.34375 129.390625 248.203125 129.453125 248.058594 129.425781 C 247.867188 129.402344 247.71875 129.21875 247.59375 129.058594 C 247.328125 128.71875 247.070312 128.285156 246.800781 127.828125 C 245.914062 126.324219 244.238281 126.863281 243.25 128.300781 C 242.632812 129.191406 241.894531 130.113281 240.886719 130.320312 C 240.558594 130.394531 240.152344 130.339844 240 130.023438 C 239.808594 129.636719 240.109375 129.246094 240.058594 128.851562 C 240.015625 128.480469 239.859375 128.316406 239.683594 128.003906 C 238.996094 126.777344 237.417969 126.734375 236.453125 127.75 C 235.777344 128.457031 235.074219 129.136719 234.347656 129.789062 C 234.035156 130.058594 233.585938 130.328125 233.277344 130.058594 C 233.109375 129.914062 233.070312 129.671875 233.035156 129.4375 C 232.859375 128.292969 232.691406 127.144531 232.515625 126 C 232.417969 125.359375 232.074219 124.519531 231.488281 124.683594 C 231.207031 124.765625 231.039062 125.0625 230.878906 125.332031 C 230.6875 125.675781 227.253906 129.582031 227.1875 129.285156 C 226.652344 127.066406 225.558594 125.042969 225.023438 122.824219 C 221.566406 108.546875 236.910156 97.066406 248.628906 97 C 251.234375 96.984375 253.613281 97.027344 256.144531 97.628906 C 258.84375 98.28125 261.691406 99.3125 264.136719 100.761719 C 267.570312 102.792969 270.167969 106.480469 269.5 110.882812 "/>
<path style=" stroke:none;fill-rule:nonzero;fill:rgb(19.215687%,26.666668%,42.352942%);fill-opacity:1;" d="M 260.253906 114.921875 C 258.53125 116.816406 258.074219 119.484375 257.914062 122.003906 C 257.675781 125.800781 258 129.746094 259.808594 133.117188 C 260.324219 134.078125 260.703125 138.828125 261.496094 138.566406 C 261.75 138.484375 261.707031 134.800781 262.378906 132.816406 C 263.40625 129.738281 268.15625 128.566406 270.296875 130.511719 C 273.710938 133.601562 271.707031 137.359375 270.574219 139.699219 C 269.898438 141.109375 268.824219 142.691406 268.640625 144.1875 C 268.410156 146.097656 268.34375 153.0625 269.628906 154.6875 C 270.703125 156.046875 271.84375 149.46875 272.816406 148.171875 C 280.007812 138.515625 286.90625 113.929688 274.625 108.597656 C 272.753906 107.785156 266.992188 107.367188 265.242188 108.398438 "/>
<path style=" stroke:none;fill-rule:evenodd;fill:rgb(88.235295%,89.411765%,89.803922%);fill-opacity:1;" d="M 315.449219 55.433594 L 313.5 55.433594 C 313.027344 55.433594 312.648438 55.050781 312.648438 54.582031 L 312.648438 52.632812 C 312.648438 52.160156 313.03125 51.78125 313.5 51.78125 L 315.449219 51.78125 C 315.917969 51.78125 316.296875 52.164062 316.300781 52.632812 L 316.300781 54.582031 C 316.300781 54.808594 316.210938 55.027344 316.050781 55.1875 C 315.890625 55.347656 315.675781 55.4375 315.449219 55.433594 Z M 308.691406 55.433594 L 306.742188 55.433594 C 306.273438 55.433594 305.894531 55.054688 305.890625 54.582031 L 305.890625 52.632812 C 305.890625 52.160156 306.273438 51.78125 306.742188 51.78125 L 308.691406 51.78125 C 309.160156 51.78125 309.539062 52.164062 309.542969 52.632812 L 309.542969 54.582031 C 309.539062 55.054688 309.160156 55.433594 308.691406 55.433594 Z M 301.929688 55.433594 L 299.980469 55.433594 C 299.511719 55.433594 299.128906 55.054688 299.128906 54.582031 L 299.128906 52.632812 C 299.128906 52.160156 299.511719 51.78125 299.980469 51.78125 L 301.929688 51.78125 C 302.398438 51.78125 302.777344 52.164062 302.78125 52.632812 L 302.78125 54.582031 C 302.78125 54.808594 302.691406 55.027344 302.53125 55.1875 C 302.371094 55.347656 302.15625 55.4375 301.929688 55.433594 Z M 295.171875 55.433594 L 293.222656 55.433594 C 292.75 55.433594 292.371094 55.054688 292.371094 54.582031 L 292.371094 52.632812 C 292.371094 52.160156 292.753906 51.78125 293.222656 51.78125 L 295.171875 51.78125 C 295.640625 51.78125 296.023438 52.164062 296.023438 52.632812 L 296.023438 54.582031 C 296.019531 55.054688 295.640625 55.433594 295.171875 55.433594 Z M 288.410156 55.433594 L 286.460938 55.433594 C 285.992188 55.433594 285.609375 55.050781 285.609375 54.582031 L 285.609375 52.632812 C 285.609375 52.160156 285.992188 51.78125 286.460938 51.78125 L 288.410156 51.78125 C 288.882812 51.78125 289.261719 52.164062 289.261719 52.632812 L 289.261719 54.582031 C 289.261719 55.054688 288.882812 55.433594 288.410156 55.433594 Z M 308.445312 48.058594 L 306.496094 48.058594 C 306.023438 48.058594 305.644531 47.675781 305.644531 47.207031 L 305.644531 45.25 C 305.644531 44.78125 306.027344 44.402344 306.496094 44.398438 L 308.445312 44.398438 C 308.914062 44.398438 309.292969 44.785156 309.292969 45.25 L 309.292969 47.203125 C 309.296875 47.429688 309.207031 47.648438 309.046875 47.808594 C 308.886719 47.96875 308.671875 48.058594 308.445312 48.058594 Z M 301.683594 48.058594 L 299.734375 48.058594 C 299.265625 48.058594 298.886719 47.675781 298.886719 47.207031 L 298.886719 45.25 C 298.886719 44.78125 299.265625 44.402344 299.734375 44.398438 L 301.683594 44.398438 C 302.15625 44.402344 302.535156 44.78125 302.535156 45.25 L 302.535156 47.203125 C 302.539062 47.429688 302.449219 47.648438 302.289062 47.808594 C 302.128906 47.96875 301.910156 48.058594 301.683594 48.058594 Z M 294.925781 48.058594 L 292.976562 48.058594 C 292.507812 48.058594 292.121094 47.675781 292.121094 47.207031 L 292.121094 45.25 C 292.121094 44.785156 292.507812 44.398438 292.976562 44.398438 L 294.925781 44.398438 C 295.394531 44.402344 295.777344 44.78125 295.777344 45.25 L 295.777344 47.203125 C 295.777344 47.675781 295.394531 48.058594 294.925781 48.058594 Z M 301.929688 63.359375 L 299.980469 63.359375 C 299.511719 63.359375 299.128906 62.976562 299.128906 62.507812 L 299.128906 60.558594 C 299.128906 60.085938 299.511719 59.707031 299.980469 59.707031 L 301.929688 59.707031 C 302.398438 59.707031 302.777344 60.085938 302.78125 60.558594 L 302.78125 62.507812 C 302.78125 62.734375 302.691406 62.949219 302.53125 63.109375 C 302.371094 63.269531 302.15625 63.359375 301.929688 63.359375 Z M 295.171875 63.359375 L 293.222656 63.359375 C 292.75 63.359375 292.371094 62.976562 292.371094 62.507812 L 292.371094 60.558594 C 292.371094 60.085938 292.753906 59.707031 293.222656 59.707031 L 295.171875 59.707031 C 295.640625 59.707031 296.023438 60.089844 296.023438 60.558594 L 296.023438 62.507812 C 296.019531 62.976562 295.640625 63.355469 295.171875 63.359375 Z M 295.171875 63.359375 "/>
<path style=" stroke:none;fill-rule:nonzero;fill:rgb(88.235295%,89.411765%,89.803922%);fill-opacity:1;" d="M 113.105469 283.605469 L 399.753906 283.605469 C 401.285156 283.605469 402.527344 284.847656 402.527344 286.378906 C 402.527344 287.914062 401.285156 289.15625 399.753906 289.15625 L 113.105469 289.15625 C 111.574219 289.15625 110.335938 287.914062 110.335938 286.378906 C 110.335938 284.847656 111.574219 283.605469 113.105469 283.605469 Z M 113.105469 283.605469 "/>
<path style=" stroke:none;fill-rule:nonzero;fill:rgb(88.235295%,89.411765%,89.803922%);fill-opacity:1;" d="M 370.785156 273.136719 L 385.421875 258.484375 C 385.957031 257.953125 386.820312 257.953125 387.351562 258.484375 L 387.351562 258.488281 C 387.886719 259.019531 387.886719 259.882812 387.351562 260.417969 L 372.71875 275.066406 C 372.183594 275.601562 371.320312 275.601562 370.789062 275.066406 L 370.785156 275.066406 C 370.253906 274.535156 370.253906 273.667969 370.785156 273.136719 Z M 370.785156 273.136719 "/>
<path style=" stroke:none;fill-rule:nonzero;fill:rgb(88.235295%,89.411765%,89.803922%);fill-opacity:1;" d="M 379.769531 273.199219 L 383.988281 268.976562 C 384.523438 268.441406 385.386719 268.441406 385.917969 268.976562 L 385.921875 268.976562 C 386.453125 269.507812 386.453125 270.375 385.921875 270.90625 L 381.699219 275.132812 C 381.167969 275.664062 380.300781 275.664062 379.769531 275.132812 C 379.234375 274.597656 379.234375 273.734375 379.769531 273.199219 Z M 379.769531 273.199219 "/>
</g>
</svg>
